<svg width="520" height="578" viewBox="0 0 520 578" fill="none" xmlns="http://www.w3.org/2000/svg">
<path d="M123.837 57.1724L107.894 46.0449L105.981 65.3715L95.1396 78.2559L113.634 80.0129L129.577 90.5547L131.49 71.8137L142.331 58.3437L123.837 57.1724Z" fill="#1565F2" stroke="white" stroke-linejoin="round"/>
<path d="M415.871 113.96C415.871 176.591 361.454 227.421 294.254 227.421C227.053 227.421 172.636 176.591 172.636 113.96C172.636 51.3299 227.053 0.5 294.254 0.5C361.454 0.5 415.871 51.3299 415.871 113.96Z" fill="url(#paint0_linear_1203_3028)" stroke="white" stroke-linejoin="round"/>
<path d="M230.319 144.229C234.788 160.677 231.171 188.89 219.464 202.974C230.085 210.594 235.178 213.677 242.45 217.073C264.207 225.339 273.889 227.676 288.422 227.647C306.192 228.615 315.996 227.094 333.117 221.772C361.285 212.714 372.703 204.166 389.305 185.938H348.441C344.143 183.482 342.453 181.895 342.056 178.301C341.828 175.087 343.189 173.46 346.526 170.664C370.946 149.998 385.308 138.274 394.413 120.73C396.041 112.005 396.145 106.887 394.413 97.2323C392.65 90.7521 390.582 86.0707 386.751 86.6581C382.92 87.2456 342.694 103.107 335.033 103.107C327.371 103.107 324.829 100.788 320.986 95.4699C317.452 91.3849 315.24 89.5954 308.854 90.1828C302.469 90.7703 297.447 91.8728 288.422 92.5327C280.815 84.2672 277.33 79.4341 271.183 70.7969C267.892 66.9979 264.159 64.3349 259.051 65.5098C253.943 66.6847 252.933 69.1772 252.028 73.7342V89.0079C252.028 89.0079 240.535 79.6087 233.511 73.7342C226.487 67.8596 219.464 63.7475 213.079 67.2722C206.694 70.7969 206.327 75.0978 207.333 82.546C218.354 110.863 225.849 127.78 230.319 144.229Z" fill="#000429" stroke="white" stroke-linejoin="round"/>
<path d="M416.241 184.951H390.76C374.038 201.984 363.323 209.693 341.072 219.2C324.891 226.2 314.232 227.44 293.933 227.467C270.789 228.139 260.109 224.675 241.697 217.428C233.771 213.699 228.453 210.272 218.764 203.847C207.848 214.07 201.524 219.421 187.55 223.924C171.183 228.965 161.378 227.829 143.595 223.924C129.811 219.483 122.574 215.657 114.929 200.304C112.381 192.037 112.723 184.882 118.752 169.598C106.615 174.683 100.541 180.131 92.6337 200.304C89.2915 211.769 90.9161 224.636 99.004 238.096C108.909 250.592 115.388 256.39 132.129 259.944C137.01 266.877 136.309 271.334 132.766 280.611L101.552 334.347C98.2978 346.456 100.04 351.598 111.744 356.786C119.312 358.304 123.028 358.35 127.033 354.424C137.343 346.041 143.221 340.076 153.788 328.442H156.336L155.774 351.447C155.774 354.4 161.545 359.148 168.439 359.148C175.013 359.148 174.595 357.967 177.995 355.605L226.408 303.05H256.348C290.047 300.416 321.682 285.862 349.99 254.039C379.659 253.836 398.219 253.942 409.871 251.677C418.074 248.972 421.978 244.797 421.974 235.734C421.492 226.824 419.357 222.316 409.871 219.2H400.315V217.428H416.241C423.846 216.985 429.603 209.938 429.618 200.894C429.618 191.514 426.412 185.591 416.241 184.951Z" fill="url(#paint1_linear_1203_3028)" stroke="white" stroke-linejoin="round"/>
<path d="M377.787 55.6375C377.787 60.6242 373.414 64.7302 367.938 64.7302C362.462 64.7302 358.089 60.6242 358.089 55.6375C358.089 50.6509 362.462 46.5449 367.938 46.5449C373.414 46.5449 377.787 50.6509 377.787 55.6375Z" fill="#060129" stroke="white" stroke-linejoin="round"/>
<path d="M319.168 21.9952C301.705 17.7816 292.014 17.3479 274.797 17.7864C294.21 21.6821 305.411 25.8749 322.971 35.2226C330.157 39.0477 336.282 46.045 340.719 46.045C345.157 46.045 347.075 44.3524 348.326 41.2351C349.22 33.7303 347.1 29.5207 319.168 21.9952Z" fill="#00092C" stroke="white" stroke-linejoin="round"/>
<path d="M27.3229 463.882H45.6535C46.5758 463.882 47.3251 464.228 47.9016 464.919C48.5933 465.611 48.9391 466.418 48.9391 467.34V468.032C48.9391 468.954 48.5933 469.761 47.9016 470.453C47.3251 471.145 46.5758 471.491 45.6535 471.491H27.3229L27.15 547.061C27.15 549.251 26.0548 550.347 23.8643 550.347H22.4809C20.1751 550.347 19.0223 549.251 19.0223 547.061L19.1952 450.566C19.0799 442.035 21.2704 435.464 25.7665 430.852C30.378 426.125 36.6611 423.762 44.6159 423.762C49.8038 423.762 52.3977 424.915 52.3977 427.221V428.604C52.3977 429.411 52.0519 430.16 51.3602 430.852C50.7837 431.544 50.0344 431.89 49.1121 431.89H44.7888C39.3704 431.89 35.1047 433.504 31.992 436.732C28.8793 439.96 27.3229 444.629 27.3229 450.739V463.882ZM7.95477 463.882H12.1051C13.1427 463.882 13.9497 464.228 14.5261 464.919C15.2178 465.611 15.5637 466.418 15.5637 467.34V468.032C15.5637 468.954 15.2178 469.761 14.5261 470.453C13.9497 471.145 13.1427 471.491 12.1051 471.491H7.95477C6.91719 471.491 6.05254 471.145 5.36082 470.453C4.78439 469.761 4.49617 468.954 4.49617 468.032V467.34C4.49617 466.418 4.78439 465.611 5.36082 464.919C6.05254 464.228 6.91719 463.882 7.95477 463.882ZM70.1987 492.069C70.1987 482.962 72.9656 475.929 78.4993 470.972C84.0331 466.015 91.2385 463.536 100.116 463.536C108.993 463.536 116.14 466.072 121.559 471.145C126.977 476.102 129.687 483.077 129.687 492.069V522.159C129.687 531.151 126.977 538.184 121.559 543.257C116.14 548.214 108.993 550.693 100.116 550.693C91.3538 550.693 84.1484 548.214 78.4993 543.257C72.9656 538.184 70.1987 531.151 70.1987 522.159V492.069ZM121.559 492.069C121.559 485.498 119.541 480.483 115.506 477.024C111.471 473.451 106.341 471.664 100.116 471.664C93.8901 471.664 88.7022 473.451 84.5519 477.024C80.4015 480.483 78.3264 485.498 78.3264 492.069V522.159C78.3264 528.73 80.4015 533.803 84.5519 537.377C88.7022 540.836 93.8901 542.565 100.116 542.565C106.341 542.565 111.471 540.836 115.506 537.377C119.541 533.803 121.559 528.73 121.559 522.159V492.069ZM160.798 424.108H162.181C164.372 424.108 165.467 425.203 165.467 427.394V523.715C165.467 536.051 170.712 542.219 181.203 542.219H183.97C184.893 542.219 185.642 542.565 186.218 543.257C186.91 543.948 187.256 544.698 187.256 545.505V546.888C187.256 549.194 185.181 550.347 181.03 550.347C173.191 550.347 167.254 548.099 163.219 543.602C159.184 539.106 157.224 532.535 157.339 523.888V427.394C157.339 425.203 158.492 424.108 160.798 424.108ZM211.63 424.108H213.013C215.203 424.108 216.299 425.203 216.299 427.394V523.715C216.299 536.051 221.544 542.219 232.035 542.219H234.802C235.724 542.219 236.474 542.565 237.05 543.257C237.742 543.948 238.088 544.698 238.088 545.505V546.888C238.088 549.194 236.013 550.347 231.862 550.347C224.023 550.347 218.086 548.099 214.051 543.602C210.016 539.106 208.056 532.535 208.171 523.888V427.394C208.171 425.203 209.324 424.108 211.63 424.108ZM259.003 492.069C259.003 482.962 261.77 475.929 267.304 470.972C272.837 466.015 280.043 463.536 288.92 463.536C297.797 463.536 304.945 466.072 310.363 471.145C315.782 476.102 318.491 483.077 318.491 492.069V522.159C318.491 531.151 315.782 538.184 310.363 543.257C304.945 548.214 297.797 550.693 288.92 550.693C280.158 550.693 272.953 548.214 267.304 543.257C261.77 538.184 259.003 531.151 259.003 522.159V492.069ZM310.363 492.069C310.363 485.498 308.346 480.483 304.311 477.024C300.275 473.451 295.145 471.664 288.92 471.664C282.694 471.664 277.506 473.451 273.356 477.024C269.206 480.483 267.131 485.498 267.131 492.069V522.159C267.131 528.73 269.206 533.803 273.356 537.377C277.506 540.836 282.694 542.565 288.92 542.565C295.145 542.565 300.275 540.836 304.311 537.377C308.346 533.803 310.363 528.73 310.363 522.159V492.069ZM425.691 463.882H427.247C428.285 463.882 429.092 464.285 429.668 465.092C430.245 465.784 430.533 466.418 430.533 466.995C430.533 467.456 430.014 469.877 428.977 474.258C427.939 478.638 425.287 489.648 421.022 507.287C416.872 524.811 413.701 537.838 411.511 546.369C410.588 549.251 408.456 550.693 405.112 550.693C401.769 550.693 399.463 548.963 398.195 545.505L382.631 494.663C375.253 518.182 370.065 535.129 367.068 545.505C365.8 548.963 363.494 550.693 360.151 550.693C356.807 550.693 354.674 549.251 353.752 546.369L334.73 468.032C334.615 467.686 334.557 467.283 334.557 466.822C334.557 466.245 334.788 465.611 335.249 464.919C335.825 464.228 336.69 463.882 337.843 463.882H339.399C341.244 463.882 342.339 464.746 342.685 466.476L360.324 539.625L377.271 484.806C377.962 481.578 379.692 479.964 382.459 479.964C385.341 479.964 387.301 481.521 388.338 484.633C392.027 497.43 397.561 515.761 404.939 539.625L422.751 466.476C423.212 464.746 424.192 463.882 425.691 463.882ZM507.653 429.296H509.555C510.939 429.296 511.919 429.872 512.495 431.025C513.187 432.178 513.187 433.331 512.495 434.484V434.311L483.27 487.573C483.155 487.688 482.924 487.977 482.578 488.438C482.348 488.899 482.117 489.245 481.886 489.475L482.924 490.859L514.224 545.332C514.57 545.908 514.743 546.485 514.743 547.061C514.743 547.637 514.513 548.329 514.051 549.136C513.59 549.943 512.668 550.347 511.284 550.347H509.209C507.941 550.347 507.077 550.001 506.615 549.309L476.699 497.43C475.546 499.39 470.934 506.826 462.864 519.738C454.909 532.535 448.914 542.219 444.879 548.79C444.072 549.828 443.093 550.347 441.94 550.347H439.864C438.366 550.347 437.328 549.77 436.752 548.617C436.175 547.465 436.233 546.254 436.925 544.986L470.819 490.859V491.032C471.28 490.109 471.684 489.475 472.029 489.13C471.568 488.668 471.28 488.265 471.165 487.919L435.368 434.657C435.022 434.08 434.85 433.504 434.85 432.927C434.85 432.351 435.08 431.602 435.541 430.679C436.002 429.757 436.925 429.296 438.308 429.296H440.21C441.363 429.296 442.343 429.815 443.15 430.852L477.044 481.175L504.886 430.333C505.347 429.642 506.27 429.296 507.653 429.296Z" fill="#E8E8E8"/>
<path d="M27.3229 463.882H26.3229C26.3229 464.434 26.7706 464.882 27.3229 464.882V463.882ZM47.9016 464.919L47.1333 465.56C47.1527 465.583 47.1731 465.605 47.1944 465.626L47.9016 464.919ZM47.9016 470.453L47.1944 469.746C47.1731 469.767 47.1527 469.79 47.1333 469.813L47.9016 470.453ZM27.3229 471.491V470.491C26.7715 470.491 26.3242 470.937 26.3229 471.488L27.3229 471.491ZM27.15 547.061L26.15 547.059V547.061H27.15ZM19.0223 547.061L18.0223 547.059V547.061H19.0223ZM19.1952 450.566L20.1952 450.568C20.1952 450.563 20.1952 450.558 20.1951 450.553L19.1952 450.566ZM25.7665 430.852L25.0508 430.154L25.0505 430.154L25.7665 430.852ZM51.3602 430.852L50.653 430.145C50.6317 430.166 50.6113 430.189 50.5919 430.212L51.3602 430.852ZM31.992 436.732L32.7119 437.426L32.7119 437.426L31.992 436.732ZM14.5261 464.919L13.7579 465.56C13.7772 465.583 13.7976 465.605 13.819 465.626L14.5261 464.919ZM14.5261 470.453L13.819 469.746C13.7976 469.767 13.7772 469.79 13.7579 469.813L14.5261 470.453ZM5.36082 470.453L4.5926 471.093C4.61195 471.117 4.63235 471.139 4.65372 471.16L5.36082 470.453ZM5.36082 464.919L4.65372 464.212C4.63235 464.234 4.61195 464.256 4.5926 464.279L5.36082 464.919ZM27.3229 464.882H45.6535V462.882H27.3229V464.882ZM45.6535 464.882C46.2873 464.882 46.7522 465.102 47.1333 465.56L48.6698 464.279C47.8981 463.353 46.8642 462.882 45.6535 462.882V464.882ZM47.1944 465.626C47.7113 466.143 47.9391 466.701 47.9391 467.34H49.9391C49.9391 466.136 49.4753 465.079 48.6087 464.212L47.1944 465.626ZM47.9391 467.34V468.032H49.9391V467.34H47.9391ZM47.9391 468.032C47.9391 468.672 47.7113 469.229 47.1944 469.746L48.6087 471.16C49.4753 470.294 49.9391 469.237 49.9391 468.032H47.9391ZM47.1333 469.813C46.7522 470.27 46.2873 470.491 45.6535 470.491V472.491C46.8642 472.491 47.8981 472.019 48.6698 471.093L47.1333 469.813ZM45.6535 470.491H27.3229V472.491H45.6535V470.491ZM26.3229 471.488L26.15 547.059L28.15 547.063L28.3229 471.493L26.3229 471.488ZM26.15 547.061C26.15 548.002 25.9154 548.524 25.6215 548.818C25.3275 549.112 24.8054 549.347 23.8643 549.347V551.347C25.1137 551.347 26.2344 551.034 27.0357 550.232C27.837 549.431 28.15 548.31 28.15 547.061H26.15ZM23.8643 549.347H22.4809V551.347H23.8643V549.347ZM22.4809 549.347C21.4697 549.347 20.8971 549.106 20.5757 548.8C20.2638 548.504 20.0223 547.989 20.0223 547.061H18.0223C18.0223 548.324 18.3571 549.451 19.1982 550.25C20.0296 551.04 21.1863 551.347 22.4809 551.347V549.347ZM20.0223 547.063L20.1952 450.568L18.1952 450.564L18.0223 547.059L20.0223 547.063ZM20.1951 450.553C20.0822 442.198 22.2259 435.916 26.4825 431.55L25.0505 430.154C20.3148 435.011 18.0776 441.872 18.1953 450.58L20.1951 450.553ZM26.4823 431.551C30.8679 427.055 36.8714 424.762 44.6159 424.762V422.762C36.4508 422.762 29.8881 425.196 25.0508 430.154L26.4823 431.551ZM44.6159 424.762C47.1668 424.762 48.9429 425.05 50.0461 425.541C50.586 425.78 50.9166 426.048 51.1114 426.308C51.2969 426.555 51.3977 426.845 51.3977 427.221H53.3977C53.3977 426.443 53.1743 425.725 52.7114 425.108C52.2576 424.503 51.6155 424.049 50.8584 423.713C49.3676 423.05 47.2529 422.762 44.6159 422.762V424.762ZM51.3977 427.221V428.604H53.3977V427.221H51.3977ZM51.3977 428.604C51.3977 429.091 51.1997 429.598 50.653 430.145L52.0673 431.559C52.9041 430.722 53.3977 429.731 53.3977 428.604H51.3977ZM50.5919 430.212C50.2108 430.669 49.7459 430.89 49.1121 430.89V432.89C50.3228 432.89 51.3567 432.418 52.1284 431.492L50.5919 430.212ZM49.1121 430.89H44.7888V432.89H49.1121V430.89ZM44.7888 430.89C39.1596 430.89 34.6118 432.574 31.2722 436.038L32.7119 437.426C35.5977 434.433 39.5811 432.89 44.7888 432.89V430.89ZM31.2722 436.038C27.9227 439.511 26.3229 444.466 26.3229 450.739H28.3229C28.3229 444.792 29.8358 440.408 32.7119 437.426L31.2722 436.038ZM26.3229 450.739V463.882H28.3229V450.739H26.3229ZM7.95477 464.882H12.1051V462.882H7.95477V464.882ZM12.1051 464.882C12.8964 464.882 13.4016 465.132 13.7579 465.56L15.2943 464.279C14.4978 463.323 13.3889 462.882 12.1051 462.882V464.882ZM13.819 465.626C14.3358 466.143 14.5637 466.701 14.5637 467.34H16.5637C16.5637 466.136 16.0998 465.079 15.2332 464.212L13.819 465.626ZM14.5637 467.34V468.032H16.5637V467.34H14.5637ZM14.5637 468.032C14.5637 468.672 14.3358 469.229 13.819 469.746L15.2332 471.16C16.0998 470.294 16.5637 469.237 16.5637 468.032H14.5637ZM13.7579 469.813C13.4016 470.241 12.8964 470.491 12.1051 470.491V472.491C13.3889 472.491 14.4978 472.049 15.2943 471.093L13.7579 469.813ZM12.1051 470.491H7.95477V472.491H12.1051V470.491ZM7.95477 470.491C7.16455 470.491 6.55985 470.238 6.06793 469.746L4.65372 471.16C5.54523 472.052 6.66983 472.491 7.95477 472.491V470.491ZM6.12905 469.813C5.7063 469.306 5.49617 468.727 5.49617 468.032H3.49617C3.49617 469.182 3.86249 470.217 4.5926 471.093L6.12905 469.813ZM5.49617 468.032V467.34H3.49617V468.032H5.49617ZM5.49617 467.34C5.49617 466.646 5.7063 466.067 6.12904 465.56L4.5926 464.279C3.86249 465.155 3.49617 466.19 3.49617 467.34H5.49617ZM6.06793 465.626C6.55985 465.135 7.16455 464.882 7.95477 464.882V462.882C6.66983 462.882 5.54523 463.321 4.65372 464.212L6.06793 465.626ZM78.4993 470.972L79.1666 471.717L79.1666 471.717L78.4993 470.972ZM121.559 471.145L120.875 471.875L120.884 471.883L121.559 471.145ZM121.559 543.257L122.234 543.994L122.242 543.987L121.559 543.257ZM78.4993 543.257L77.8236 543.994C77.8289 543.999 77.8343 544.003 77.8397 544.008L78.4993 543.257ZM115.506 477.024L114.843 477.773C114.847 477.777 114.851 477.78 114.856 477.784L115.506 477.024ZM84.5519 477.024L85.192 477.793C85.1962 477.789 85.2003 477.786 85.2044 477.782L84.5519 477.024ZM84.5519 537.377L83.8993 538.135C83.9034 538.138 83.9075 538.142 83.9117 538.145L84.5519 537.377ZM115.506 537.377L116.157 538.136C116.161 538.133 116.165 538.129 116.169 538.126L115.506 537.377ZM71.1987 492.069C71.1987 483.177 73.8913 476.442 79.1666 471.717L77.8321 470.227C72.0398 475.416 69.1987 482.747 69.1987 492.069H71.1987ZM79.1666 471.717C84.4824 466.955 91.4341 464.536 100.116 464.536V462.536C91.0428 462.536 83.5837 465.075 77.8321 470.227L79.1666 471.717ZM100.116 464.536C108.792 464.536 115.677 467.009 120.875 471.875L122.242 470.415C116.603 465.136 109.194 462.536 100.116 462.536V464.536ZM120.884 471.883C126.05 476.609 128.687 483.29 128.687 492.069H130.687C130.687 482.864 127.905 475.595 122.234 470.407L120.884 471.883ZM128.687 492.069V522.159H130.687V492.069H128.687ZM128.687 522.159C128.687 530.938 126.05 537.682 120.875 542.527L122.242 543.987C127.905 538.686 130.687 531.365 130.687 522.159H128.687ZM120.884 542.519C115.687 547.274 108.798 549.693 100.116 549.693V551.693C109.188 551.693 116.594 549.154 122.234 543.994L120.884 542.519ZM100.116 549.693C91.5539 549.693 84.5958 547.276 79.1589 542.505L77.8397 544.008C83.7009 549.152 91.1537 551.693 100.116 551.693V549.693ZM79.175 542.519C73.8885 537.673 71.1987 530.931 71.1987 522.159H69.1987C69.1987 531.372 72.0426 538.694 77.8236 543.994L79.175 542.519ZM71.1987 522.159V492.069H69.1987V522.159H71.1987ZM122.559 492.069C122.559 485.281 120.465 479.958 116.157 476.265L114.856 477.784C118.618 481.008 120.559 485.715 120.559 492.069H122.559ZM116.169 476.276C111.923 472.515 106.545 470.664 100.116 470.664V472.664C106.137 472.664 111.019 474.386 114.843 477.773L116.169 476.276ZM100.116 470.664C93.6854 470.664 88.2559 472.515 83.8993 476.267L85.2044 477.782C89.1485 474.386 94.0947 472.664 100.116 472.664V470.664ZM83.9117 476.256C79.4842 479.946 77.3264 485.272 77.3264 492.069H79.3264C79.3264 485.724 81.3189 481.02 85.192 477.793L83.9117 476.256ZM77.3264 492.069V522.159H79.3264V492.069H77.3264ZM77.3264 522.159C77.3264 528.958 79.4843 534.333 83.8993 538.135L85.2044 536.619C81.3188 533.273 79.3264 528.503 79.3264 522.159H77.3264ZM83.9117 538.145C88.2686 541.776 93.6937 543.565 100.116 543.565V541.565C94.0864 541.565 89.1357 539.895 85.192 536.609L83.9117 538.145ZM100.116 543.565C106.537 543.565 111.911 541.776 116.157 538.136L114.856 536.618C111.032 539.895 106.145 541.565 100.116 541.565V543.565ZM116.169 538.126C120.465 534.321 122.559 528.949 122.559 522.159H120.559C120.559 528.512 118.618 533.285 114.843 536.628L116.169 538.126ZM122.559 522.159V492.069H120.559V522.159H122.559ZM186.218 543.257L185.45 543.897C185.47 543.92 185.49 543.942 185.511 543.964L186.218 543.257ZM163.219 543.602L162.474 544.27L162.474 544.27L163.219 543.602ZM157.339 523.888L158.339 523.902V523.888H157.339ZM160.798 425.108H162.181V423.108H160.798V425.108ZM162.181 425.108C163.122 425.108 163.644 425.343 163.938 425.636C164.232 425.93 164.467 426.453 164.467 427.394H166.467C166.467 426.144 166.154 425.024 165.352 424.222C164.551 423.421 163.43 423.108 162.181 423.108V425.108ZM164.467 427.394V523.715H166.467V427.394H164.467ZM164.467 523.715C164.467 530.001 165.8 534.902 168.639 538.241C171.505 541.611 175.758 543.219 181.203 543.219V541.219C176.158 541.219 172.543 539.744 170.163 536.945C167.756 534.116 166.467 529.765 166.467 523.715H164.467ZM181.203 543.219H183.97V541.219H181.203V543.219ZM183.97 543.219C184.604 543.219 185.069 543.439 185.45 543.897L186.987 542.616C186.215 541.69 185.181 541.219 183.97 541.219V543.219ZM185.511 543.964C186.058 544.51 186.256 545.017 186.256 545.505H188.256C188.256 544.378 187.762 543.386 186.925 542.549L185.511 543.964ZM186.256 545.505V546.888H188.256V545.505H186.256ZM186.256 546.888C186.256 547.31 186.163 547.631 186.009 547.887C185.855 548.144 185.607 548.39 185.214 548.608C184.398 549.061 183.046 549.347 181.03 549.347V551.347C183.165 551.347 184.926 551.056 186.185 550.356C186.83 549.998 187.36 549.523 187.724 548.916C188.09 548.307 188.256 547.619 188.256 546.888H186.256ZM181.03 549.347C173.385 549.347 167.756 547.161 163.963 542.935L162.474 544.27C166.752 549.037 172.997 551.347 181.03 551.347V549.347ZM163.963 542.935C160.156 538.692 158.226 532.405 158.339 523.902L156.339 523.875C156.222 532.665 158.211 539.52 162.474 544.27L163.963 542.935ZM158.339 523.888V427.394H156.339V523.888H158.339ZM158.339 427.394C158.339 426.466 158.581 425.951 158.892 425.654C159.214 425.349 159.787 425.108 160.798 425.108V423.108C159.503 423.108 158.346 423.414 157.515 424.204C156.674 425.003 156.339 426.131 156.339 427.394H158.339ZM237.05 543.257L236.282 543.897C236.301 543.92 236.322 543.942 236.343 543.964L237.05 543.257ZM214.051 543.602L213.306 544.27L213.306 544.27L214.051 543.602ZM208.171 523.888L209.171 523.902V523.888H208.171ZM211.63 425.108H213.013V423.108H211.63V425.108ZM213.013 425.108C213.954 425.108 214.476 425.343 214.77 425.636C215.064 425.93 215.299 426.453 215.299 427.394H217.299C217.299 426.144 216.986 425.024 216.184 424.222C215.383 423.421 214.262 423.108 213.013 423.108V425.108ZM215.299 427.394V523.715H217.299V427.394H215.299ZM215.299 523.715C215.299 530.001 216.632 534.902 219.471 538.241C222.337 541.611 226.589 543.219 232.035 543.219V541.219C226.99 541.219 223.374 539.744 220.995 536.945C218.588 534.116 217.299 529.765 217.299 523.715H215.299ZM232.035 543.219H234.802V541.219H232.035V543.219ZM234.802 543.219C235.436 543.219 235.901 543.439 236.282 543.897L237.818 542.616C237.047 541.69 236.013 541.219 234.802 541.219V543.219ZM236.343 543.964C236.89 544.51 237.088 545.017 237.088 545.505H239.088C239.088 544.378 238.594 543.386 237.757 542.549L236.343 543.964ZM237.088 545.505V546.888H239.088V545.505H237.088ZM237.088 546.888C237.088 547.31 236.995 547.631 236.841 547.887C236.687 548.144 236.439 548.39 236.046 548.608C235.23 549.061 233.878 549.347 231.862 549.347V551.347C233.997 551.347 235.758 551.056 237.017 550.356C237.662 549.998 238.192 549.523 238.556 548.916C238.922 548.307 239.088 547.619 239.088 546.888H237.088ZM231.862 549.347C224.217 549.347 218.588 547.161 214.795 542.935L213.306 544.27C217.584 549.037 223.829 551.347 231.862 551.347V549.347ZM214.795 542.935C210.988 538.692 209.058 532.405 209.171 523.902L207.171 523.875C207.054 532.665 209.043 539.52 213.306 544.27L214.795 542.935ZM209.171 523.888V427.394H207.171V523.888H209.171ZM209.171 427.394C209.171 426.466 209.413 425.951 209.724 425.654C210.046 425.349 210.618 425.108 211.63 425.108V423.108C210.335 423.108 209.178 423.414 208.347 424.204C207.506 425.003 207.171 426.131 207.171 427.394H209.171ZM267.304 470.972L267.971 471.717L267.971 471.717L267.304 470.972ZM310.363 471.145L309.68 471.875L309.688 471.883L310.363 471.145ZM310.363 543.257L311.038 543.994L311.046 543.987L310.363 543.257ZM267.304 543.257L266.628 543.994C266.633 543.999 266.639 544.003 266.644 544.008L267.304 543.257ZM304.311 477.024L303.647 477.773C303.652 477.777 303.656 477.78 303.66 477.784L304.311 477.024ZM273.356 477.024L273.996 477.793C274 477.789 274.005 477.786 274.009 477.782L273.356 477.024ZM273.356 537.377L272.704 538.135C272.708 538.138 272.712 538.142 272.716 538.145L273.356 537.377ZM304.311 537.377L304.961 538.136C304.965 538.133 304.969 538.129 304.974 538.126L304.311 537.377ZM260.003 492.069C260.003 483.177 262.696 476.442 267.971 471.717L266.636 470.227C260.844 475.416 258.003 482.747 258.003 492.069H260.003ZM267.971 471.717C273.287 466.955 280.238 464.536 288.92 464.536V462.536C279.847 462.536 272.388 465.075 266.636 470.227L267.971 471.717ZM288.92 464.536C297.596 464.536 304.482 467.009 309.68 471.875L311.046 470.415C305.407 465.136 297.998 462.536 288.92 462.536V464.536ZM309.688 471.883C314.854 476.609 317.491 483.29 317.491 492.069H319.491C319.491 482.864 316.709 475.595 311.038 470.407L309.688 471.883ZM317.491 492.069V522.159H319.491V492.069H317.491ZM317.491 522.159C317.491 530.938 314.854 537.682 309.68 542.527L311.046 543.987C316.709 538.686 319.491 531.365 319.491 522.159H317.491ZM309.688 542.519C304.491 547.274 297.602 549.693 288.92 549.693V551.693C297.992 551.693 305.398 549.154 311.038 543.994L309.688 542.519ZM288.92 549.693C280.358 549.693 273.4 547.276 267.963 542.505L266.644 544.008C272.505 549.152 279.958 551.693 288.92 551.693V549.693ZM267.979 542.519C262.693 537.673 260.003 530.931 260.003 522.159H258.003C258.003 531.372 260.847 538.694 266.628 543.994L267.979 542.519ZM260.003 522.159V492.069H258.003V522.159H260.003ZM311.363 492.069C311.363 485.281 309.269 479.958 304.961 476.265L303.66 477.784C307.422 481.008 309.363 485.715 309.363 492.069H311.363ZM304.974 476.276C300.728 472.515 295.349 470.664 288.92 470.664V472.664C294.941 472.664 299.823 474.386 303.647 477.773L304.974 476.276ZM288.92 470.664C282.49 470.664 277.06 472.515 272.704 476.267L274.009 477.782C277.953 474.386 282.899 472.664 288.92 472.664V470.664ZM272.716 476.256C268.288 479.946 266.131 485.272 266.131 492.069H268.131C268.131 485.724 270.123 481.02 273.996 477.793L272.716 476.256ZM266.131 492.069V522.159H268.131V492.069H266.131ZM266.131 522.159C266.131 528.958 268.288 534.333 272.704 538.135L274.009 536.619C270.123 533.273 268.131 528.503 268.131 522.159H266.131ZM272.716 538.145C277.073 541.776 282.498 543.565 288.92 543.565V541.565C282.891 541.565 277.94 539.895 273.996 536.609L272.716 538.145ZM288.92 543.565C295.341 543.565 300.715 541.776 304.961 538.136L303.66 536.618C299.836 539.895 294.95 541.565 288.92 541.565V543.565ZM304.974 538.126C309.269 534.321 311.363 528.949 311.363 522.159H309.363C309.363 528.512 307.422 533.285 303.647 536.628L304.974 538.126ZM311.363 522.159V492.069H309.363V522.159H311.363ZM429.668 465.092L428.855 465.674C428.869 465.694 428.884 465.713 428.9 465.732L429.668 465.092ZM428.977 474.258L428.004 474.027L428.004 474.027L428.977 474.258ZM421.022 507.287L420.05 507.052L420.049 507.057L421.022 507.287ZM411.511 546.369L412.463 546.674C412.469 546.656 412.475 546.637 412.479 546.618L411.511 546.369ZM398.195 545.505L397.239 545.797C397.244 545.815 397.25 545.832 397.256 545.849L398.195 545.505ZM382.631 494.663L383.588 494.371C383.459 493.952 383.073 493.665 382.635 493.663C382.197 493.662 381.809 493.946 381.677 494.364L382.631 494.663ZM367.068 545.505L368.007 545.849C368.015 545.827 368.022 545.805 368.029 545.782L367.068 545.505ZM353.752 546.369L352.78 546.605C352.786 546.628 352.793 546.651 352.8 546.674L353.752 546.369ZM334.73 468.032L335.702 467.796C335.695 467.769 335.687 467.742 335.679 467.716L334.73 468.032ZM335.249 464.919L334.48 464.279C334.458 464.307 334.436 464.335 334.417 464.365L335.249 464.919ZM342.685 466.476L341.704 466.672C341.707 466.685 341.709 466.697 341.713 466.71L342.685 466.476ZM360.324 539.625L359.351 539.859C359.457 540.297 359.842 540.61 360.292 540.625C360.742 540.639 361.146 540.351 361.279 539.92L360.324 539.625ZM377.271 484.806L378.226 485.102C378.235 485.073 378.242 485.045 378.248 485.016L377.271 484.806ZM388.338 484.633L389.299 484.356C389.295 484.343 389.291 484.33 389.287 484.317L388.338 484.633ZM404.939 539.625L403.984 539.92C404.117 540.35 404.52 540.638 404.97 540.625C405.42 540.611 405.805 540.299 405.911 539.862L404.939 539.625ZM422.751 466.476L421.785 466.218C421.783 466.225 421.781 466.232 421.78 466.239L422.751 466.476ZM425.691 464.882H427.247V462.882H425.691V464.882ZM427.247 464.882C427.98 464.882 428.476 465.143 428.855 465.674L430.482 464.511C429.708 463.427 428.59 462.882 427.247 462.882V464.882ZM428.9 465.732C429.407 466.34 429.533 466.752 429.533 466.995H431.533C431.533 466.084 431.083 465.228 430.437 464.452L428.9 465.732ZM429.533 466.995C429.533 466.981 429.533 467.013 429.518 467.124C429.504 467.224 429.483 467.358 429.452 467.531C429.39 467.875 429.295 468.346 429.166 468.947C428.909 470.147 428.522 471.839 428.004 474.027L429.95 474.488C430.469 472.295 430.86 470.587 431.122 469.366C431.252 468.756 431.352 468.261 431.42 467.885C431.481 467.543 431.533 467.215 431.533 466.995H429.533ZM428.004 474.027C426.967 478.405 424.316 489.412 420.05 507.052L421.994 507.522C426.259 489.884 428.912 478.872 429.95 474.488L428.004 474.027ZM420.049 507.057C415.899 524.579 412.73 537.599 410.542 546.121L412.479 546.618C414.672 538.077 417.844 525.042 421.995 507.518L420.049 507.057ZM410.558 546.065C410.153 547.331 409.509 548.209 408.66 548.783C407.801 549.363 406.644 549.693 405.112 549.693V551.693C406.924 551.693 408.505 551.302 409.779 550.44C411.063 549.573 411.946 548.29 412.463 546.674L410.558 546.065ZM405.112 549.693C403.621 549.693 402.429 549.31 401.476 548.596C400.515 547.875 399.72 546.758 399.134 545.16L397.256 545.849C397.939 547.71 398.93 549.187 400.276 550.196C401.628 551.21 403.26 551.693 405.112 551.693V549.693ZM399.151 545.212L383.588 494.371L381.675 494.956L397.239 545.797L399.151 545.212ZM381.677 494.364C374.299 517.883 369.108 534.839 366.107 545.227L368.029 545.782C371.023 535.418 376.207 518.481 383.586 494.963L381.677 494.364ZM366.129 545.16C365.543 546.758 364.748 547.875 363.787 548.596C362.834 549.31 361.642 549.693 360.151 549.693V551.693C362.003 551.693 363.635 551.21 364.987 550.196C366.333 549.187 367.324 547.71 368.007 545.849L366.129 545.16ZM360.151 549.693C358.619 549.693 357.461 549.363 356.603 548.783C355.754 548.209 355.11 547.331 354.705 546.065L352.8 546.674C353.317 548.29 354.2 549.573 355.484 550.44C356.758 551.302 358.338 551.693 360.151 551.693V549.693ZM354.724 546.133L335.702 467.796L333.758 468.268L352.78 546.605L354.724 546.133ZM335.679 467.716C335.605 467.495 335.557 467.202 335.557 466.822H333.557C333.557 467.363 333.624 467.878 333.781 468.348L335.679 467.716ZM335.557 466.822C335.557 466.512 335.683 466.071 336.081 465.474L334.417 464.365C333.892 465.151 333.557 465.978 333.557 466.822H335.557ZM336.017 465.56C336.353 465.157 336.897 464.882 337.843 464.882V462.882C336.483 462.882 335.298 463.298 334.48 464.279L336.017 465.56ZM337.843 464.882H339.399V462.882H337.843V464.882ZM339.399 464.882C340.169 464.882 340.663 465.061 340.984 465.315C341.3 465.565 341.565 465.977 341.704 466.672L343.665 466.28C343.458 465.245 343.003 464.36 342.224 463.745C341.45 463.135 340.474 462.882 339.399 462.882V464.882ZM341.713 466.71L359.351 539.859L361.296 539.391L343.657 466.241L341.713 466.71ZM361.279 539.92L378.226 485.102L376.315 484.511L359.368 539.33L361.279 539.92ZM378.248 485.016C378.568 483.525 379.102 482.528 379.769 481.906C380.417 481.301 381.283 480.964 382.459 480.964V478.964C380.868 478.964 379.485 479.435 378.404 480.444C377.341 481.436 376.665 482.859 376.293 484.597L378.248 485.016ZM382.459 480.964C383.71 480.964 384.691 481.298 385.468 481.915C386.256 482.54 386.913 483.521 387.389 484.95L389.287 484.317C388.725 482.633 387.884 481.279 386.712 480.348C385.529 479.409 384.09 478.964 382.459 478.964V480.964ZM387.377 484.91C391.069 497.716 396.605 516.054 403.984 539.92L405.895 539.33C398.517 515.467 392.986 497.144 389.299 484.356L387.377 484.91ZM405.911 539.862L423.723 466.712L421.78 466.239L403.968 539.388L405.911 539.862ZM423.717 466.733C423.915 465.991 424.197 465.542 424.494 465.28C424.774 465.033 425.147 464.882 425.691 464.882V462.882C424.736 462.882 423.87 463.163 423.17 463.78C422.487 464.383 422.048 465.231 421.785 466.218L423.717 466.733ZM512.495 431.025L511.601 431.472C511.612 431.495 511.624 431.518 511.638 431.54L512.495 431.025ZM512.495 434.484H511.495C511.495 434.933 511.795 435.327 512.228 435.447C512.661 435.567 513.121 435.384 513.352 434.998L512.495 434.484ZM512.495 434.311H513.495C513.495 433.854 513.186 433.455 512.743 433.342C512.301 433.229 511.838 433.429 511.618 433.83L512.495 434.311ZM483.27 487.573L483.977 488.28C484.044 488.213 484.101 488.137 484.147 488.054L483.27 487.573ZM482.578 488.438L481.778 487.838C481.742 487.886 481.711 487.937 481.684 487.991L482.578 488.438ZM481.886 489.475L481.179 488.768C480.827 489.12 480.788 489.677 481.086 490.075L481.886 489.475ZM482.924 490.859L483.791 490.361C483.771 490.325 483.748 490.291 483.724 490.259L482.924 490.859ZM514.224 545.332L513.357 545.83C513.36 545.835 513.364 545.841 513.367 545.846L514.224 545.332ZM514.051 549.136L514.92 549.632L514.92 549.632L514.051 549.136ZM506.615 549.309L505.749 549.809C505.76 549.827 505.771 549.846 505.783 549.864L506.615 549.309ZM476.699 497.43L477.565 496.931C477.387 496.622 477.059 496.432 476.703 496.43C476.347 496.429 476.017 496.616 475.837 496.923L476.699 497.43ZM462.864 519.738L462.016 519.208L462.015 519.21L462.864 519.738ZM444.879 548.79L445.669 549.404C445.691 549.375 445.712 549.345 445.732 549.314L444.879 548.79ZM436.752 548.617L437.646 548.17L437.646 548.17L436.752 548.617ZM436.925 544.986L436.077 544.455C436.066 544.472 436.056 544.489 436.047 544.507L436.925 544.986ZM470.819 490.859H471.819C471.819 490.413 471.524 490.021 471.095 489.898C470.666 489.775 470.208 489.95 469.971 490.328L470.819 490.859ZM470.819 491.032H469.819C469.819 491.496 470.138 491.898 470.589 492.005C471.041 492.112 471.506 491.894 471.713 491.479L470.819 491.032ZM472.029 489.13L472.737 489.837C472.924 489.649 473.029 489.395 473.029 489.13C473.029 488.864 472.924 488.61 472.737 488.422L472.029 489.13ZM471.165 487.919L472.113 487.603C472.085 487.517 472.045 487.436 471.995 487.361L471.165 487.919ZM435.368 434.657L434.511 435.171C434.52 435.186 434.529 435.2 434.538 435.214L435.368 434.657ZM435.541 430.679L436.436 431.126L436.436 431.126L435.541 430.679ZM443.15 430.852L443.98 430.294C443.967 430.275 443.953 430.256 443.939 430.238L443.15 430.852ZM477.044 481.175L476.215 481.733C476.41 482.023 476.742 482.19 477.09 482.174C477.439 482.158 477.754 481.961 477.921 481.655L477.044 481.175ZM504.886 430.333L504.054 429.779C504.038 429.803 504.023 429.828 504.009 429.853L504.886 430.333ZM507.653 430.296H509.555V428.296H507.653V430.296ZM509.555 430.296C510.107 430.296 510.515 430.41 510.821 430.59C511.123 430.768 511.387 431.045 511.601 431.472L513.389 430.578C513.027 429.852 512.513 429.265 511.835 428.866C511.161 428.47 510.387 428.296 509.555 428.296V430.296ZM511.638 431.54C511.906 431.987 512.014 432.387 512.014 432.754C512.014 433.121 511.906 433.522 511.638 433.969L513.352 434.998C513.776 434.293 514.014 433.54 514.014 432.754C514.014 431.968 513.776 431.216 513.352 430.511L511.638 431.54ZM513.495 434.484V434.311H511.495V434.484H513.495ZM511.618 433.83L482.393 487.092L484.147 488.054L513.372 434.792L511.618 433.83ZM482.563 486.866C482.387 487.042 482.112 487.393 481.778 487.838L483.378 489.038C483.548 488.812 483.685 488.633 483.791 488.5C483.844 488.434 483.887 488.382 483.921 488.343C483.938 488.323 483.951 488.308 483.961 488.297C483.966 488.292 483.97 488.288 483.973 488.285C483.976 488.282 483.977 488.28 483.977 488.28L482.563 486.866ZM481.684 487.991C481.477 488.405 481.303 488.645 481.179 488.768L482.594 490.182C482.931 489.845 483.218 489.393 483.473 488.885L481.684 487.991ZM481.086 490.075L482.124 491.459L483.724 490.259L482.686 488.875L481.086 490.075ZM482.057 491.357L513.357 545.83L515.091 544.834L483.791 490.361L482.057 491.357ZM513.367 545.846C513.635 546.293 513.743 546.694 513.743 547.061H515.743C515.743 546.275 515.505 545.523 515.082 544.817L513.367 545.846ZM513.743 547.061C513.743 547.388 513.605 547.901 513.183 548.64L514.92 549.632C515.42 548.757 515.743 547.887 515.743 547.061H513.743ZM513.183 548.64C512.978 548.999 512.501 549.347 511.284 549.347V551.347C512.835 551.347 514.202 550.888 514.92 549.632L513.183 548.64ZM511.284 549.347H509.209V551.347H511.284V549.347ZM509.209 549.347C508.091 549.347 507.64 549.043 507.447 548.754L505.783 549.864C506.513 550.959 507.792 551.347 509.209 551.347V549.347ZM507.482 548.81L477.565 496.931L475.832 497.93L505.749 549.809L507.482 548.81ZM475.837 496.923C474.693 498.868 470.091 506.288 462.016 519.208L463.712 520.268C471.777 507.364 476.399 499.912 477.56 497.937L475.837 496.923ZM462.015 519.21C454.06 532.007 448.064 541.693 444.027 548.267L445.732 549.314C449.765 542.745 455.759 533.062 463.713 520.266L462.015 519.21ZM444.09 548.176C443.442 549.009 442.738 549.347 441.94 549.347V551.347C443.447 551.347 444.702 550.647 445.669 549.404L444.09 548.176ZM441.94 549.347H439.864V551.347H441.94V549.347ZM439.864 549.347C439.241 549.347 438.784 549.227 438.448 549.04C438.121 548.858 437.852 548.583 437.646 548.17L435.857 549.065C436.228 549.805 436.766 550.394 437.477 550.789C438.178 551.178 438.989 551.347 439.864 551.347V549.347ZM437.646 548.17C437.236 547.349 437.246 546.486 437.803 545.465L436.047 544.507C435.22 546.022 435.115 547.58 435.857 549.065L437.646 548.17ZM437.772 545.517L471.666 491.39L469.971 490.328L436.077 544.455L437.772 545.517ZM469.819 490.859V491.032H471.819V490.859H469.819ZM471.713 491.479C472.168 490.571 472.512 490.061 472.737 489.837L471.322 488.422C470.855 488.89 470.393 489.648 469.924 490.585L471.713 491.479ZM472.737 488.422C472.311 487.997 472.155 487.727 472.113 487.603L470.216 488.235C470.405 488.803 470.825 489.339 471.322 489.837L472.737 488.422ZM471.995 487.361L436.198 434.099L434.538 435.214L470.335 488.477L471.995 487.361ZM436.226 434.142C435.957 433.695 435.85 433.294 435.85 432.927H433.85C433.85 433.713 434.087 434.465 434.511 435.171L436.226 434.142ZM435.85 432.927C435.85 432.585 435.997 432.003 436.436 431.126L434.647 430.232C434.163 431.2 433.85 432.117 433.85 432.927H435.85ZM436.436 431.126C436.669 430.66 437.152 430.296 438.308 430.296V428.296C436.697 428.296 435.336 428.854 434.647 430.232L436.436 431.126ZM438.308 430.296H440.21V428.296H438.308V430.296ZM440.21 430.296C441.009 430.296 441.713 430.633 442.361 431.466L443.939 430.238C442.973 428.996 441.718 428.296 440.21 428.296V430.296ZM442.321 431.411L476.215 481.733L477.874 480.616L443.98 430.294L442.321 431.411ZM477.921 481.655L505.763 430.814L504.009 429.853L476.167 480.694L477.921 481.655ZM505.718 430.888C505.897 430.62 506.379 430.296 507.653 430.296V428.296C506.16 428.296 504.798 428.663 504.054 429.779L505.718 430.888Z" fill="white"/>
<defs>
<linearGradient id="paint0_linear_1203_3028" x1="384.235" y1="35.799" x2="217.404" y2="203.919" gradientUnits="userSpaceOnUse">
<stop stop-color="#0CF0FA"/>
<stop offset="1" stop-color="#0193FC"/>
</linearGradient>
<linearGradient id="paint1_linear_1203_3028" x1="429.896" y1="186.132" x2="107.039" y2="370.561" gradientUnits="userSpaceOnUse">
<stop stop-color="#04F8FD"/>
<stop offset="1" stop-color="#036AFC"/>
</linearGradient>
</defs>
</svg>
