<svg width="32" height="32" viewBox="0 0 32 32" fill="none" xmlns="http://www.w3.org/2000/svg">
<path d="M6.66667 5.33325C5.19387 5.33325 4 6.53325 4 7.99992V26.6666C4 28.1333 5.19387 29.3333 6.66667 29.3333H14.6667H17.3333H25.3333C26.8067 29.3333 28 28.1333 28 26.6666V7.99992C28 6.53325 26.8067 5.33325 25.3333 5.33325H17.3333H14.6667H6.66667Z" fill="#BDC3C7"/>
<path d="M6.66667 4C5.19387 4 4 5.19387 4 6.66667V25.3333C4 26.8067 5.19387 28 6.66667 28H14.6667H17.3333H25.3333C26.8067 28 28 26.8067 28 25.3333V6.66667C28 5.19387 26.8067 4 25.3333 4H17.3333H14.6667H6.66667Z" fill="#BDC3C7"/>
<path d="M6.66667 4C5.19387 4 4 5.19387 4 6.66667V10.6667V12H28V10.6667V6.66667C28 5.19387 26.8067 4 25.3333 4H17.3333H14.6667H6.66667Z" fill="url(#paint0_linear_1231_3023)"/>
<path d="M10 7.33325C10 7.5959 9.94827 7.85597 9.84776 8.09862C9.74725 8.34127 9.59993 8.56175 9.41421 8.74747C9.2285 8.93318 9.00802 9.0805 8.76537 9.18101C8.52272 9.28152 8.26264 9.33325 8 9.33325C7.73736 9.33325 7.47728 9.28152 7.23463 9.18101C6.99198 9.0805 6.7715 8.93318 6.58579 8.74747C6.40007 8.56175 6.25275 8.34127 6.15224 8.09862C6.05173 7.85597 6 7.5959 6 7.33325C6 7.07061 6.05173 6.81054 6.15224 6.56788C6.25275 6.32523 6.40007 6.10476 6.58579 5.91904C6.7715 5.73332 6.99198 5.586 7.23463 5.48549C7.47728 5.38498 7.73736 5.33325 8 5.33325C8.26264 5.33325 8.52272 5.38498 8.76537 5.48549C9.00802 5.586 9.2285 5.73332 9.41421 5.91904C9.59993 6.10476 9.74725 6.32523 9.84776 6.56788C9.94827 6.81054 10 7.07061 10 7.33325V7.33325Z" fill="#1357B3"/>
<path d="M26 7.33325C26 7.5959 25.9483 7.85597 25.8478 8.09862C25.7472 8.34127 25.5999 8.56175 25.4142 8.74747C25.2285 8.93318 25.008 9.0805 24.7654 9.18101C24.5227 9.28152 24.2626 9.33325 24 9.33325C23.7374 9.33325 23.4773 9.28152 23.2346 9.18101C22.992 9.0805 22.7715 8.93318 22.5858 8.74747C22.4001 8.56175 22.2528 8.34127 22.1522 8.09862C22.0517 7.85597 22 7.5959 22 7.33325C22 7.07061 22.0517 6.81054 22.1522 6.56788C22.2528 6.32523 22.4001 6.10476 22.5858 5.91904C22.7715 5.73332 22.992 5.586 23.2346 5.48549C23.4773 5.38498 23.7374 5.33325 24 5.33325C24.2626 5.33325 24.5227 5.38498 24.7654 5.48549C25.008 5.586 25.2285 5.73332 25.4142 5.91904C25.5999 6.10476 25.7472 6.32523 25.8478 6.56788C25.9483 6.81054 26 7.07061 26 7.33325V7.33325Z" fill="#1357B3"/>
<path d="M7.99935 1.33325C7.26295 1.33325 6.66602 1.93019 6.66602 2.66659V6.66658C6.66602 7.40298 7.26295 7.99992 7.99935 7.99992C8.73575 7.99992 9.33268 7.40298 9.33268 6.66658V2.66659C9.33268 1.93019 8.73575 1.33325 7.99935 1.33325ZM23.9993 1.33325C23.2633 1.33325 22.666 1.93019 22.666 2.66659V6.66658C22.666 7.40298 23.2633 7.99992 23.9993 7.99992C24.7353 7.99992 25.3327 7.40298 25.3327 6.66658V2.66659C25.3327 1.93019 24.7353 1.33325 23.9993 1.33325Z" fill="#95A5A6"/>
<path d="M7.99935 1.33325C7.26295 1.33325 6.66602 1.86659 6.66602 2.66659V5.33325H9.33268V2.66659C9.33268 1.86659 8.73575 1.33325 7.99935 1.33325ZM23.9993 1.33325C23.2633 1.33325 22.666 1.86659 22.666 2.66659V5.33325H25.3327V2.66659C25.3327 1.86659 24.7353 1.33325 23.9993 1.33325Z" fill="#BDC3C7"/>
<path d="M6.66602 14.6667V17.3334H9.33268V14.6667H6.66602ZM10.666 14.6667V17.3334H13.3327V14.6667H10.666ZM14.666 14.6667V17.3334H17.3327V14.6667H14.666ZM18.666 14.6667V17.3334H21.3327V14.6667H18.666ZM22.666 14.6667V17.3334H25.3327V14.6667H22.666Z" fill="url(#paint1_linear_1231_3023)"/>
<path d="M6.66602 18.6667V21.3334H9.33268V18.6667H6.66602ZM10.666 18.6667V21.3334H13.3327V18.6667H10.666ZM14.666 18.6667V21.3334H17.3327V18.6667H14.666ZM18.666 18.6667V21.3334H21.3327V18.6667H18.666ZM22.666 18.6667V21.3334H25.3327V18.6667H22.666Z" fill="url(#paint2_linear_1231_3023)"/>
<path d="M6.66602 22.6667V25.3334H9.33268V22.6667H6.66602ZM10.666 22.6667V25.3334H13.3327V22.6667H10.666ZM14.666 22.6667V25.3334H17.3327V22.6667H14.666ZM18.666 22.6667V25.3334H21.3327V22.6667H18.666ZM22.666 22.6667V25.3334H25.3327V22.6667H22.666Z" fill="url(#paint3_linear_1231_3023)"/>
<defs>
<linearGradient id="paint0_linear_1231_3023" x1="26.2857" y1="4.72727" x2="22.2896" y2="16.8085" gradientUnits="userSpaceOnUse">
<stop stop-color="#5390E3"/>
<stop offset="1" stop-color="#1357B3"/>
</linearGradient>
<linearGradient id="paint1_linear_1231_3023" x1="23.9994" y1="14.9092" x2="23.3785" y2="19.2888" gradientUnits="userSpaceOnUse">
<stop stop-color="#5390E3"/>
<stop offset="1" stop-color="#1357B3"/>
</linearGradient>
<linearGradient id="paint2_linear_1231_3023" x1="23.9994" y1="18.9092" x2="23.3785" y2="23.2888" gradientUnits="userSpaceOnUse">
<stop stop-color="#5390E3"/>
<stop offset="1" stop-color="#1357B3"/>
</linearGradient>
<linearGradient id="paint3_linear_1231_3023" x1="23.9994" y1="22.9092" x2="23.3785" y2="27.2888" gradientUnits="userSpaceOnUse">
<stop stop-color="#5390E3"/>
<stop offset="1" stop-color="#1357B3"/>
</linearGradient>
</defs>
</svg>
