<svg width="26" height="28" viewBox="0 0 26 28" fill="none" xmlns="http://www.w3.org/2000/svg">
<path d="M17.8769 14.0006L25.1938 6.12009C26.2669 4.96447 26.2669 3.07324 25.1938 1.91763L24.2187 0.867612C23.1456 -0.289204 21.3894 -0.289204 20.3163 0.867612L12.9994 8.74812L5.68151 0.867612C4.60951 -0.288004 2.85329 -0.288004 1.78017 0.867612L0.804003 1.91763C-0.268001 3.07324 -0.268001 4.96447 0.804003 6.12009L8.12082 13.9994L0.804003 21.8799C-0.268001 23.0355 -0.268001 24.9268 0.804003 26.0812L1.78017 27.1312C2.85329 28.2868 4.60951 28.2868 5.68151 27.1312L12.9994 19.2531L20.3163 27.1312C21.3894 28.2868 23.1456 28.2868 24.2187 27.1312L25.1938 26.0812C26.2669 24.9256 26.2669 23.0343 25.1938 21.8799L17.8769 14.0006Z" fill="url(#paint0_linear_1231_3036)"/>
<defs>
<linearGradient id="paint0_linear_1231_3036" x1="24.1416" y1="2.54526" x2="0.73963" y2="24.4445" gradientUnits="userSpaceOnUse">
<stop stop-color="#5390E3"/>
<stop offset="1" stop-color="#1357B3"/>
</linearGradient>
</defs>
</svg>
