<svg width="39" height="39" viewBox="0 0 39 39" fill="none" xmlns="http://www.w3.org/2000/svg">
<path d="M6.22906 24.7788L7.41702 24.5065L6.22906 24.7788ZM6.22906 15.199L7.41702 15.4713L6.22906 15.199ZM32.7709 15.199L31.583 15.4713L32.7709 15.199ZM32.7709 24.7788L31.583 24.5065L32.7709 24.7788ZM24.1802 33.5707L24.4647 34.7558L24.1802 33.5707ZM14.8198 33.5707L15.1043 32.3856L14.8198 33.5707ZM14.8198 6.40703L15.1043 7.59211L14.8198 6.40703ZM24.1802 6.40703L24.4647 5.22195L24.1802 6.40703ZM14.3326 4.875C14.3326 4.20191 13.787 3.65625 13.1139 3.65625C12.4408 3.65625 11.8951 4.20191 11.8951 4.875H14.3326ZM11.8951 8.95984C11.8951 9.63294 12.4408 10.1786 13.1139 10.1786C13.787 10.1786 14.3326 9.63294 14.3326 8.95984H11.8951ZM27.1048 4.875C27.1048 4.20191 26.5592 3.65625 25.8861 3.65625C25.213 3.65625 24.6673 4.20191 24.6673 4.875H27.1048ZM24.6673 8.95984C24.6673 9.63294 25.213 10.1786 25.8861 10.1786C26.5592 10.1786 27.1048 9.63294 27.1048 8.95984H24.6673ZM7.41702 24.5065C6.736 21.5352 6.736 18.4426 7.41702 15.4713L5.04112 14.9267C4.27796 18.2564 4.27796 21.7214 5.04112 25.051L7.41702 24.5065ZM31.583 15.4713C32.264 18.4426 32.264 21.5352 31.583 24.5065L33.9589 25.051C34.722 21.7214 34.722 18.2564 33.9589 14.9267L31.583 15.4713ZM23.8958 32.3856C21.0044 33.0798 17.9956 33.0798 15.1043 32.3856L14.5353 34.7558C17.8007 35.5397 21.1994 35.5397 24.4647 34.7558L23.8958 32.3856ZM15.1043 7.59211C17.9956 6.89801 21.0044 6.89801 23.8958 7.59211L24.4647 5.22195C21.1994 4.43805 17.8006 4.43805 14.5353 5.22195L15.1043 7.59211ZM15.1043 32.3856C11.3036 31.4733 8.31625 28.4299 7.41702 24.5065L5.04112 25.051C6.14162 29.8526 9.81076 33.6216 14.5353 34.7558L15.1043 32.3856ZM24.4647 34.7558C29.1892 33.6216 32.8583 29.8526 33.9589 25.051L31.583 24.5065C30.6837 28.4299 27.6963 31.4733 23.8958 32.3856L24.4647 34.7558ZM23.8958 7.59211C27.6963 8.50452 30.6837 11.5479 31.583 15.4713L33.9589 14.9267C32.8583 10.1252 29.1892 6.35614 24.4647 5.22195L23.8958 7.59211ZM14.5353 5.22195C9.81076 6.35614 6.14162 10.1252 5.04112 14.9267L7.41702 15.4713C8.31625 11.5479 11.3036 8.50452 15.1043 7.59211L14.5353 5.22195ZM11.8951 4.875V8.95984H14.3326V4.875H11.8951ZM24.6673 4.875V8.95984H27.1048V4.875H24.6673Z" fill="url(#paint0_linear_1509_3009)"/>
<path d="M5.04112 25.051C5.1915 25.7072 5.84526 26.1172 6.50135 25.9667C7.15743 25.8164 7.5674 25.1626 7.41702 24.5065L5.04112 25.051ZM6.22906 15.199L5.04112 14.9267L6.22906 15.199ZM32.7709 15.199L33.9589 14.9267L32.7709 15.199ZM32.7709 24.7788L31.583 24.5065L32.7709 24.7788ZM23.8958 32.3856C23.2412 32.5427 22.8381 33.2007 22.9952 33.8552C23.1523 34.5098 23.8101 34.913 24.4647 34.7558L23.8958 32.3856ZM14.8198 6.40703L14.5353 5.22195L14.8198 6.40703ZM24.1802 6.40703L24.4647 5.22195L24.1802 6.40703ZM14.3326 4.875C14.3326 4.20191 13.787 3.65625 13.1139 3.65625C12.4408 3.65625 11.8951 4.20191 11.8951 4.875H14.3326ZM11.8951 8.95984C11.8951 9.63294 12.4408 10.1786 13.1139 10.1786C13.787 10.1786 14.3326 9.63294 14.3326 8.95984H11.8951ZM27.1048 4.875C27.1048 4.20191 26.5592 3.65625 25.8861 3.65625C25.213 3.65625 24.6673 4.20191 24.6673 4.875H27.1048ZM24.6673 8.95984C24.6673 9.63294 25.213 10.1786 25.8861 10.1786C26.5592 10.1786 27.1048 9.63294 27.1048 8.95984H24.6673ZM7.41702 24.5065C6.736 21.5352 6.736 18.4426 7.41702 15.4713L5.04112 14.9267C4.27796 18.2564 4.27796 21.7214 5.04112 25.051L7.41702 24.5065ZM31.583 15.4713C32.264 18.4426 32.264 21.5352 31.583 24.5065L33.9589 25.051C34.722 21.7214 34.722 18.2564 33.9589 14.9267L31.583 15.4713ZM15.1043 7.59211C17.9956 6.89801 21.0044 6.89801 23.8958 7.59211L24.4647 5.22195C21.1994 4.43805 17.8006 4.43805 14.5353 5.22195L15.1043 7.59211ZM24.4647 34.7558C29.1892 33.6216 32.8583 29.8526 33.9589 25.051L31.583 24.5065C30.6837 28.4299 27.6963 31.4733 23.8958 32.3856L24.4647 34.7558ZM23.8958 7.59211C27.6963 8.50452 30.6837 11.5479 31.583 15.4713L33.9589 14.9267C32.8583 10.1252 29.1892 6.35614 24.4647 5.22195L23.8958 7.59211ZM14.5353 5.22195C9.81076 6.35614 6.14162 10.1252 5.04112 14.9267L7.41702 15.4713C8.31625 11.5479 11.3036 8.50452 15.1043 7.59211L14.5353 5.22195ZM11.8951 4.875V8.95984H14.3326V4.875H11.8951ZM24.6673 4.875V8.95984H27.1048V4.875H24.6673Z" fill="url(#paint1_linear_1509_3009)"/>
<path d="M12.9807 16.7175C12.4696 16.2794 11.7002 16.3387 11.2622 16.8496C10.8241 17.3607 10.8833 18.1301 11.3944 18.5682L12.9807 16.7175ZM13.8125 19.0358L13.0194 19.961C13.4758 20.3523 14.1493 20.3523 14.6057 19.961L13.8125 19.0358ZM17.8557 17.1753C18.3667 16.7374 18.4259 15.9679 17.9878 15.4569C17.5499 14.9458 16.7804 14.8866 16.2694 15.3247L17.8557 17.1753ZM12.9807 23.6818C12.4696 23.2437 11.7002 23.303 11.2622 23.8141C10.8241 24.3251 10.8833 25.0944 11.3944 25.5325L12.9807 23.6818ZM13.8125 26L13.0194 26.9253C13.4758 27.3166 14.1493 27.3166 14.6057 26.9253L13.8125 26ZM17.8557 24.1397C18.3667 23.7016 18.4259 22.9322 17.9878 22.4211C17.5499 21.9101 16.7804 21.8509 16.2694 22.289L17.8557 24.1397ZM21.125 17.1205C20.4519 17.1205 19.9063 17.6662 19.9063 18.3393C19.9063 19.0124 20.4519 19.558 21.125 19.558V17.1205ZM26.8125 19.558C27.4856 19.558 28.0313 19.0124 28.0313 18.3393C28.0313 17.6662 27.4856 17.1205 26.8125 17.1205V19.558ZM21.125 24.0848C20.4519 24.0848 19.9063 24.6305 19.9063 25.3035C19.9063 25.9766 20.4519 26.5223 21.125 26.5223V24.0848ZM26.8125 26.5223C27.4856 26.5223 28.0313 25.9766 28.0313 25.3035C28.0313 24.6305 27.4856 24.0848 26.8125 24.0848V26.5223ZM11.3944 18.5682L13.0194 19.961L14.6057 18.1103L12.9807 16.7175L11.3944 18.5682ZM14.6057 19.961L17.8557 17.1753L16.2694 15.3247L13.0194 18.1103L14.6057 19.961ZM11.3944 25.5325L13.0194 26.9253L14.6057 25.0747L12.9807 23.6818L11.3944 25.5325ZM14.6057 26.9253L17.8557 24.1397L16.2694 22.289L13.0194 25.0747L14.6057 26.9253ZM21.125 19.558H26.8125V17.1205H21.125V19.558ZM21.125 26.5223H26.8125V24.0848H21.125V26.5223Z" fill="url(#paint2_linear_1509_3009)"/>
<defs>
<linearGradient id="paint0_linear_1509_3009" x1="34.5312" y1="3.65625" x2="2.88761" y2="33.6771" gradientUnits="userSpaceOnUse">
<stop stop-color="#1B69D2"/>
<stop offset="1" stop-color="#07346F" stop-opacity="0"/>
</linearGradient>
<linearGradient id="paint1_linear_1509_3009" x1="32.3839" y1="6.48657" x2="6.31347" y2="31.8553" gradientUnits="userSpaceOnUse">
<stop stop-color="#5390E3"/>
<stop offset="1" stop-color="#1357B3"/>
</linearGradient>
<linearGradient id="paint2_linear_1509_3009" x1="26.8125" y1="16.1392" x2="17.1795" y2="29.73" gradientUnits="userSpaceOnUse">
<stop stop-color="#5390E3"/>
<stop offset="1" stop-color="#1357B3"/>
</linearGradient>
</defs>
</svg>
