<svg width="42" height="42" viewBox="0 0 42 42" fill="none" xmlns="http://www.w3.org/2000/svg">
<path d="M12.7149 14.0437C12.7149 14.0765 12.7149 14.0929 12.7149 14.1093C12.7149 14.2242 12.7477 14.339 12.7969 14.4375L13.1578 16.3078C13.8961 20.0648 17.1938 22.7718 21.0164 22.7718C24.8391 22.7718 28.1367 20.0484 28.875 16.2914L29.9906 10.582C30.3188 8.18667 29.5969 5.75854 27.9891 3.93745C26.3649 2.13276 24.068 1.08276 21.6563 1.08276H20.3438C17.9321 1.08276 15.6188 2.13276 14.0274 3.95386C12.436 5.77495 11.7141 8.20308 12.0422 10.6476L12.7149 14.0437ZM21 21.1968C17.9321 21.1968 15.2906 19.0148 14.7164 16.0125L14.3227 13.9617C14.4375 12.9773 14.9789 10.6968 16.3242 9.87651C17.1281 9.38433 18.2274 9.43355 19.5891 10.0078C22.9524 11.4515 25.561 11.4679 27.2508 11.189C28.1203 12.1078 27.8086 13.3875 27.7266 13.65C27.7102 13.7156 27.6938 13.8468 27.6938 13.9289C27.6938 13.9453 27.6938 13.9453 27.6938 13.9617L27.3 16.0289C26.7094 19.0148 24.068 21.1968 21 21.1968ZM15.225 5.00386C16.5211 3.52729 18.375 2.67417 20.3438 2.67417H21.6563C23.6086 2.67417 25.4789 3.52729 26.775 5.00386C28.0219 6.41479 28.5961 8.28511 28.4156 10.1226C28.2844 9.97495 28.1367 9.8437 27.9727 9.71245C27.7922 9.5648 27.5461 9.51558 27.3164 9.5648C25.8727 9.87651 23.461 9.94214 20.2125 8.54761C18.3422 7.76011 16.7508 7.7437 15.4875 8.5148C14.6508 9.02339 14.0766 9.81089 13.6664 10.6312L13.6172 10.3851C13.3547 8.44917 13.9453 6.48042 15.225 5.00386Z" fill="url(#paint0_linear_1518_3083)"/>
<path d="M38.9484 39.9492L36.5859 28.8258C36.3891 27.907 35.7164 27.1359 34.8305 26.8242L27.907 24.3633C27.6117 24.2648 27.3 24.3305 27.0867 24.5438L21 30.6305L14.9133 24.5438C14.7 24.3305 14.3719 24.2484 14.093 24.3633L7.16953 26.8242C6.28359 27.1359 5.61093 27.907 5.41406 28.8258L3.05156 39.9656C3.00234 40.1953 3.06797 40.4414 3.21562 40.6383C3.36328 40.8188 3.59297 40.9336 3.83906 40.9336H38.1937C38.4398 40.9336 38.6531 40.8188 38.8172 40.6383C38.9484 40.4414 38.9977 40.1953 38.9484 39.9492ZM4.80703 39.3258L6.97265 29.1539C7.05468 28.7602 7.33359 28.4484 7.69453 28.3172L14.1422 26.0203L20.4258 32.3039C20.7375 32.6156 21.2461 32.6156 21.5578 32.3039L27.8414 26.0203L34.2891 28.3172C34.6664 28.4484 34.9289 28.7602 35.0273 29.1539L37.193 39.3258H4.80703V39.3258Z" fill="url(#paint1_linear_1518_3083)"/>
<defs>
<linearGradient id="paint0_linear_1518_3083" x1="28.7751" y1="3.0545" x2="10.8749" y2="18.1114" gradientUnits="userSpaceOnUse">
<stop stop-color="#5390E3"/>
<stop offset="1" stop-color="#1357B3"/>
</linearGradient>
<linearGradient id="paint1_linear_1518_3083" x1="36.4006" y1="25.8224" x2="25.8417" y2="48.824" gradientUnits="userSpaceOnUse">
<stop stop-color="#5390E3"/>
<stop offset="1" stop-color="#1357B3"/>
</linearGradient>
</defs>
</svg>
