<svg width="31" height="31" viewBox="0 0 31 31" fill="none" xmlns="http://www.w3.org/2000/svg">
<mask id="path-1-inside-1_1515_3009" fill="white">
<path d="M16.2031 8.67383C15.9779 8.73789 15.7454 8.78336 15.4999 8.78336C15.2545 8.78336 15.022 8.73789 14.7968 8.67383L15.4999 9.84563L16.2031 8.67383Z"/>
</mask>
<path d="M16.2031 8.67383L17.0606 9.18838L18.3616 7.02028L15.9296 7.71197L16.2031 8.67383ZM14.7968 8.67383L15.0703 7.71197L12.6382 7.02028L13.9393 9.18838L14.7968 8.67383ZM15.4999 9.84563L14.6425 10.3602L15.4999 11.7891L16.3574 10.3602L15.4999 9.84563ZM15.9296 7.71197C15.7571 7.76103 15.6215 7.78336 15.4999 7.78336V9.78336C15.8692 9.78336 16.1986 9.71476 16.4767 9.63568L15.9296 7.71197ZM15.4999 7.78336C15.3783 7.78336 15.2428 7.76103 15.0703 7.71197L14.5232 9.63568C14.8012 9.71476 15.1307 9.78336 15.4999 9.78336V7.78336ZM13.9393 9.18838L14.6425 10.3602L16.3574 9.33108L15.6542 8.15928L13.9393 9.18838ZM16.3574 10.3602L17.0606 9.18838L15.3457 8.15928L14.6425 9.33108L16.3574 10.3602Z" fill="url(#paint0_linear_1515_3009)" mask="url(#path-1-inside-1_1515_3009)"/>
<mask id="path-3-inside-2_1515_3009" fill="white">
<path d="M16.2031 13.0263L15.4999 11.8545L14.7968 13.0268C15.022 12.9622 15.2545 12.9168 15.4999 12.9168C15.7454 12.9168 15.9779 12.9622 16.2031 13.0263Z"/>
</mask>
<path d="M16.2031 13.0263L15.9296 13.9881L18.3616 14.6798L17.0606 12.5117L16.2031 13.0263ZM15.4999 11.8545L16.3574 11.3399L15.4997 9.91074L14.6424 11.3401L15.4999 11.8545ZM14.7968 13.0268L13.9392 12.5124L12.6349 14.6869L15.0723 13.9881L14.7968 13.0268ZM17.0606 12.5117L16.3574 11.3399L14.6425 12.369L15.3457 13.5408L17.0606 12.5117ZM14.6424 11.3401L13.9392 12.5124L15.6543 13.5412L16.3575 12.3689L14.6424 11.3401ZM15.0723 13.9881C15.2434 13.939 15.3785 13.9168 15.4999 13.9168V11.9168C15.1305 11.9168 14.8007 11.9854 14.5212 12.0655L15.0723 13.9881ZM15.4999 13.9168C15.6215 13.9168 15.7571 13.9391 15.9296 13.9881L16.4767 12.0644C16.1986 11.9854 15.8692 11.9168 15.4999 11.9168V13.9168Z" fill="url(#paint1_linear_1515_3009)" mask="url(#path-3-inside-2_1515_3009)"/>
<mask id="path-5-inside-3_1515_3009" fill="white">
<path d="M27.4773 0.770867C27.3973 0.770867 27.3156 0.752267 27.2392 0.712483C26.986 0.580733 26.8878 0.269183 27.0196 0.0155L27.0278 0H3.97211L3.98038 0.0155C4.11213 0.268667 4.01396 0.580733 3.76079 0.712483C3.68484 0.752267 3.60321 0.770867 3.52261 0.770867C3.35573 0.770867 3.19814 0.686133 3.09998 0.543017V30.2694L3.25136 30.118L3.40274 29.9667C3.44821 29.9212 3.50143 29.8892 3.55671 29.8644C3.57893 29.8122 3.60734 29.7621 3.65023 29.7192L4.38131 28.9881C4.58333 28.7861 4.90986 28.7861 5.11188 28.9881C5.31389 29.1901 5.31389 29.5166 5.11188 29.7187L4.38079 30.4497C4.33791 30.4926 4.28779 30.5216 4.23561 30.5433C4.21081 30.5985 4.17878 30.6518 4.13331 30.6972L3.98193 30.8486L3.83054 31H27.1694L27.018 30.8486C26.816 30.6466 26.816 30.3201 27.018 30.118C27.22 29.916 27.5466 29.916 27.7486 30.118L27.9 30.2694V0.543017C27.8018 0.686133 27.6442 0.770867 27.4773 0.770867ZM22.7266 8.26563L23.204 7.34907C23.3352 7.09642 23.6468 6.9967 23.901 7.12948C24.1541 7.26123 24.2523 7.57278 24.1206 7.82647L23.6432 8.74303C23.5512 8.91973 23.3714 9.021 23.1844 9.021C23.1043 9.021 23.0226 9.0024 22.9462 8.96262C22.693 8.83087 22.5948 8.5188 22.7266 8.26563ZM11.8833 9.81667H12.9166C13.2024 9.81667 13.4333 10.0476 13.4333 10.3333C13.4333 10.619 13.2024 10.85 12.9166 10.85H11.8833C11.5976 10.85 11.3666 10.619 11.3666 10.3333C11.3666 10.0476 11.5976 9.81667 11.8833 9.81667ZM5.19196 3.46218C5.11549 3.50197 5.03386 3.52057 4.95378 3.52057C4.76726 3.52057 4.58694 3.41982 4.49498 3.2426L4.01758 2.32655C3.88583 2.0739 3.98399 1.76132 4.23716 1.62957C4.49033 1.49678 4.80291 1.5965 4.93414 1.84915L5.41154 2.7652C5.54329 3.01837 5.44513 3.33043 5.19196 3.46218ZM5.66833 4.37978C5.92149 4.247 6.23356 4.34672 6.36531 4.59937L6.84271 5.51593C6.97446 5.7691 6.87629 6.08117 6.62313 6.21292C6.54718 6.2527 6.46503 6.2713 6.38494 6.2713C6.19843 6.2713 6.01811 6.17003 5.92614 5.99333L5.44874 5.07677C5.31699 4.82308 5.41464 4.51102 5.66833 4.37978ZM7.30409 27.5264L6.57353 28.257C6.47278 28.3578 6.34051 28.4084 6.20824 28.4084C6.07598 28.4084 5.94371 28.3578 5.84296 28.257C5.64094 28.055 5.64094 27.7285 5.84296 27.5264L6.57353 26.7959C6.77554 26.5939 7.10208 26.5939 7.30409 26.7959C7.50611 26.9979 7.50559 27.3249 7.30409 27.5264ZM7.35679 8.74303L6.87939 7.82647C6.74764 7.5733 6.84581 7.26123 7.09898 7.12948C7.35214 6.99722 7.66473 7.09693 7.79596 7.34907L8.27336 8.26563C8.40511 8.5188 8.30694 8.83087 8.05378 8.96262C7.97783 9.0024 7.89568 9.021 7.81559 9.021C7.62908 9.021 7.44876 8.91973 7.35679 8.74303ZM9.27983 25.8333H8.99721L8.76523 26.0653C8.66448 26.1661 8.53221 26.2167 8.39994 26.2167C8.26768 26.2167 8.13541 26.1661 8.03466 26.0653C7.83264 25.8633 7.83264 25.5368 8.03466 25.3347L8.38341 24.986C8.50173 24.8677 8.66551 24.8 8.83239 24.8H9.27983C9.56554 24.8 9.79649 25.0309 9.79649 25.3167C9.79649 25.6024 9.56554 25.8333 9.27983 25.8333ZM9.81664 10.85H8.72183L8.57354 10.7947C8.31314 10.6779 8.19689 10.3726 8.31366 10.1122C8.41389 9.88797 8.65259 9.76913 8.88716 9.81718H9.81664C10.1024 9.81718 10.3333 10.0481 10.3333 10.3338C10.3333 10.6196 10.1024 10.85 9.81664 10.85ZM12.3798 25.8333H11.3465C11.0608 25.8333 10.8298 25.6024 10.8298 25.3167C10.8298 25.0309 11.0608 24.8 11.3465 24.8H12.3798C12.6655 24.8 12.8965 25.0309 12.8965 25.3167C12.8965 25.6024 12.6655 25.8333 12.3798 25.8333ZM12.9166 15.5C12.9166 14.8392 13.1734 14.2414 13.5831 13.7842C13.4266 13.6199 13.3842 13.3713 13.5067 13.1672L14.8975 10.85L13.5072 8.53275C13.3847 8.32867 13.4266 8.08015 13.5837 7.91585C13.1734 7.45808 12.9166 6.86082 12.9166 6.2C12.9166 4.77555 14.0755 3.61667 15.5 3.61667C16.9244 3.61667 18.0833 4.77555 18.0833 6.2C18.0833 6.86082 17.8265 7.45808 17.4168 7.91585C17.5734 8.08015 17.6157 8.32867 17.4933 8.53275L16.1024 10.85L17.4928 13.1672C17.6152 13.3713 17.5734 13.6199 17.4163 13.7842C17.8265 14.2414 18.0833 14.8392 18.0833 15.5C18.0833 16.9244 16.9244 18.0833 15.5 18.0833C14.0755 18.0833 12.9166 16.9244 12.9166 15.5ZM15.4798 25.8333H14.4465C14.1608 25.8333 13.9298 25.6024 13.9298 25.3167C13.9298 25.0309 14.1608 24.8 14.4465 24.8H15.4798C15.7655 24.8 15.9965 25.0309 15.9965 25.3167C15.9965 25.6024 15.7655 25.8333 15.4798 25.8333ZM18.5798 25.8333H17.5465C17.2608 25.8333 17.0298 25.6024 17.0298 25.3167C17.0298 25.0309 17.2608 24.8 17.5465 24.8H18.5798C18.8655 24.8 19.0965 25.0309 19.0965 25.3167C19.0965 25.6024 18.8655 25.8333 18.5798 25.8333ZM19.1166 10.85H18.0833C17.7976 10.85 17.5666 10.619 17.5666 10.3333C17.5666 10.0476 17.7976 9.81667 18.0833 9.81667H19.1166C19.4024 9.81667 19.6333 10.0476 19.6333 10.3333C19.6333 10.619 19.4024 10.85 19.1166 10.85ZM21.6798 25.8333H20.6465C20.3608 25.8333 20.1298 25.6024 20.1298 25.3167C20.1298 25.0309 20.3608 24.8 20.6465 24.8H21.6798C21.9655 24.8 22.1965 25.0309 22.1965 25.3167C22.1965 25.6024 21.9655 25.8333 21.6798 25.8333ZM22.4264 10.7947C22.3598 10.8242 22.2404 10.85 22.1676 10.85H21.1833C20.8976 10.85 20.6666 10.619 20.6666 10.3333C20.6666 10.0476 20.8976 9.81667 21.1833 9.81667H22.1128C22.3479 9.76862 22.5861 9.88797 22.6863 10.1117C22.8036 10.3721 22.6868 10.6779 22.4264 10.7947ZM24.398 27.498C24.2973 27.5988 24.165 27.6494 24.0327 27.6494C23.9005 27.6494 23.7682 27.5988 23.6674 27.498L22.9369 26.7675C22.7349 26.5654 22.7349 26.2389 22.9369 26.0369C23.1389 25.8349 23.4654 25.8349 23.6674 26.0369L24.398 26.7675C24.5995 26.969 24.5995 27.296 24.398 27.498ZM24.3773 6.2124C24.1242 6.08065 24.026 5.7691 24.1578 5.51542L24.6352 4.59885C24.7664 4.3462 25.0779 4.24597 25.3321 4.37927C25.5853 4.51102 25.6835 4.82257 25.5517 5.07625L25.0738 5.99333C24.9818 6.17003 24.802 6.2713 24.615 6.2713C24.5349 6.2713 24.4533 6.2527 24.3773 6.2124ZM26.5902 29.6902C26.4895 29.791 26.3572 29.8416 26.2249 29.8416C26.0927 29.8416 25.9604 29.791 25.8597 29.6902L25.1286 28.9592C24.9266 28.7571 24.9266 28.4306 25.1286 28.2286C25.3306 28.0266 25.6571 28.0266 25.8591 28.2286L26.5902 28.9597C26.7917 29.1612 26.7917 29.4882 26.5902 29.6902ZM26.9824 2.32655L26.505 3.2426C26.413 3.41982 26.2332 3.52057 26.0462 3.52057C25.9661 3.52057 25.8845 3.50197 25.808 3.46218C25.5548 3.33043 25.4567 3.01837 25.5884 2.7652L26.0658 1.84915C26.197 1.59598 26.5081 1.49627 26.7628 1.62957C27.016 1.76132 27.1141 2.0739 26.9824 2.32655Z"/>
</mask>
<path d="M27.4773 0.770867C27.3973 0.770867 27.3156 0.752267 27.2392 0.712483C26.986 0.580733 26.8878 0.269183 27.0196 0.0155L27.0278 0H3.97211L3.98038 0.0155C4.11213 0.268667 4.01396 0.580733 3.76079 0.712483C3.68484 0.752267 3.60321 0.770867 3.52261 0.770867C3.35573 0.770867 3.19814 0.686133 3.09998 0.543017V30.2694L3.25136 30.118L3.40274 29.9667C3.44821 29.9212 3.50143 29.8892 3.55671 29.8644C3.57893 29.8122 3.60734 29.7621 3.65023 29.7192L4.38131 28.9881C4.58333 28.7861 4.90986 28.7861 5.11188 28.9881C5.31389 29.1901 5.31389 29.5166 5.11188 29.7187L4.38079 30.4497C4.33791 30.4926 4.28779 30.5216 4.23561 30.5433C4.21081 30.5985 4.17878 30.6518 4.13331 30.6972L3.98193 30.8486L3.83054 31H27.1694L27.018 30.8486C26.816 30.6466 26.816 30.3201 27.018 30.118C27.22 29.916 27.5466 29.916 27.7486 30.118L27.9 30.2694V0.543017C27.8018 0.686133 27.6442 0.770867 27.4773 0.770867ZM22.7266 8.26563L23.204 7.34907C23.3352 7.09642 23.6468 6.9967 23.901 7.12948C24.1541 7.26123 24.2523 7.57278 24.1206 7.82647L23.6432 8.74303C23.5512 8.91973 23.3714 9.021 23.1844 9.021C23.1043 9.021 23.0226 9.0024 22.9462 8.96262C22.693 8.83087 22.5948 8.5188 22.7266 8.26563ZM11.8833 9.81667H12.9166C13.2024 9.81667 13.4333 10.0476 13.4333 10.3333C13.4333 10.619 13.2024 10.85 12.9166 10.85H11.8833C11.5976 10.85 11.3666 10.619 11.3666 10.3333C11.3666 10.0476 11.5976 9.81667 11.8833 9.81667ZM5.19196 3.46218C5.11549 3.50197 5.03386 3.52057 4.95378 3.52057C4.76726 3.52057 4.58694 3.41982 4.49498 3.2426L4.01758 2.32655C3.88583 2.0739 3.98399 1.76132 4.23716 1.62957C4.49033 1.49678 4.80291 1.5965 4.93414 1.84915L5.41154 2.7652C5.54329 3.01837 5.44513 3.33043 5.19196 3.46218ZM5.66833 4.37978C5.92149 4.247 6.23356 4.34672 6.36531 4.59937L6.84271 5.51593C6.97446 5.7691 6.87629 6.08117 6.62313 6.21292C6.54718 6.2527 6.46503 6.2713 6.38494 6.2713C6.19843 6.2713 6.01811 6.17003 5.92614 5.99333L5.44874 5.07677C5.31699 4.82308 5.41464 4.51102 5.66833 4.37978ZM7.30409 27.5264L6.57353 28.257C6.47278 28.3578 6.34051 28.4084 6.20824 28.4084C6.07598 28.4084 5.94371 28.3578 5.84296 28.257C5.64094 28.055 5.64094 27.7285 5.84296 27.5264L6.57353 26.7959C6.77554 26.5939 7.10208 26.5939 7.30409 26.7959C7.50611 26.9979 7.50559 27.3249 7.30409 27.5264ZM7.35679 8.74303L6.87939 7.82647C6.74764 7.5733 6.84581 7.26123 7.09898 7.12948C7.35214 6.99722 7.66473 7.09693 7.79596 7.34907L8.27336 8.26563C8.40511 8.5188 8.30694 8.83087 8.05378 8.96262C7.97783 9.0024 7.89568 9.021 7.81559 9.021C7.62908 9.021 7.44876 8.91973 7.35679 8.74303ZM9.27983 25.8333H8.99721L8.76523 26.0653C8.66448 26.1661 8.53221 26.2167 8.39994 26.2167C8.26768 26.2167 8.13541 26.1661 8.03466 26.0653C7.83264 25.8633 7.83264 25.5368 8.03466 25.3347L8.38341 24.986C8.50173 24.8677 8.66551 24.8 8.83239 24.8H9.27983C9.56554 24.8 9.79649 25.0309 9.79649 25.3167C9.79649 25.6024 9.56554 25.8333 9.27983 25.8333ZM9.81664 10.85H8.72183L8.57354 10.7947C8.31314 10.6779 8.19689 10.3726 8.31366 10.1122C8.41389 9.88797 8.65259 9.76913 8.88716 9.81718H9.81664C10.1024 9.81718 10.3333 10.0481 10.3333 10.3338C10.3333 10.6196 10.1024 10.85 9.81664 10.85ZM12.3798 25.8333H11.3465C11.0608 25.8333 10.8298 25.6024 10.8298 25.3167C10.8298 25.0309 11.0608 24.8 11.3465 24.8H12.3798C12.6655 24.8 12.8965 25.0309 12.8965 25.3167C12.8965 25.6024 12.6655 25.8333 12.3798 25.8333ZM12.9166 15.5C12.9166 14.8392 13.1734 14.2414 13.5831 13.7842C13.4266 13.6199 13.3842 13.3713 13.5067 13.1672L14.8975 10.85L13.5072 8.53275C13.3847 8.32867 13.4266 8.08015 13.5837 7.91585C13.1734 7.45808 12.9166 6.86082 12.9166 6.2C12.9166 4.77555 14.0755 3.61667 15.5 3.61667C16.9244 3.61667 18.0833 4.77555 18.0833 6.2C18.0833 6.86082 17.8265 7.45808 17.4168 7.91585C17.5734 8.08015 17.6157 8.32867 17.4933 8.53275L16.1024 10.85L17.4928 13.1672C17.6152 13.3713 17.5734 13.6199 17.4163 13.7842C17.8265 14.2414 18.0833 14.8392 18.0833 15.5C18.0833 16.9244 16.9244 18.0833 15.5 18.0833C14.0755 18.0833 12.9166 16.9244 12.9166 15.5ZM15.4798 25.8333H14.4465C14.1608 25.8333 13.9298 25.6024 13.9298 25.3167C13.9298 25.0309 14.1608 24.8 14.4465 24.8H15.4798C15.7655 24.8 15.9965 25.0309 15.9965 25.3167C15.9965 25.6024 15.7655 25.8333 15.4798 25.8333ZM18.5798 25.8333H17.5465C17.2608 25.8333 17.0298 25.6024 17.0298 25.3167C17.0298 25.0309 17.2608 24.8 17.5465 24.8H18.5798C18.8655 24.8 19.0965 25.0309 19.0965 25.3167C19.0965 25.6024 18.8655 25.8333 18.5798 25.8333ZM19.1166 10.85H18.0833C17.7976 10.85 17.5666 10.619 17.5666 10.3333C17.5666 10.0476 17.7976 9.81667 18.0833 9.81667H19.1166C19.4024 9.81667 19.6333 10.0476 19.6333 10.3333C19.6333 10.619 19.4024 10.85 19.1166 10.85ZM21.6798 25.8333H20.6465C20.3608 25.8333 20.1298 25.6024 20.1298 25.3167C20.1298 25.0309 20.3608 24.8 20.6465 24.8H21.6798C21.9655 24.8 22.1965 25.0309 22.1965 25.3167C22.1965 25.6024 21.9655 25.8333 21.6798 25.8333ZM22.4264 10.7947C22.3598 10.8242 22.2404 10.85 22.1676 10.85H21.1833C20.8976 10.85 20.6666 10.619 20.6666 10.3333C20.6666 10.0476 20.8976 9.81667 21.1833 9.81667H22.1128C22.3479 9.76862 22.5861 9.88797 22.6863 10.1117C22.8036 10.3721 22.6868 10.6779 22.4264 10.7947ZM24.398 27.498C24.2973 27.5988 24.165 27.6494 24.0327 27.6494C23.9005 27.6494 23.7682 27.5988 23.6674 27.498L22.9369 26.7675C22.7349 26.5654 22.7349 26.2389 22.9369 26.0369C23.1389 25.8349 23.4654 25.8349 23.6674 26.0369L24.398 26.7675C24.5995 26.969 24.5995 27.296 24.398 27.498ZM24.3773 6.2124C24.1242 6.08065 24.026 5.7691 24.1578 5.51542L24.6352 4.59885C24.7664 4.3462 25.0779 4.24597 25.3321 4.37927C25.5853 4.51102 25.6835 4.82257 25.5517 5.07625L25.0738 5.99333C24.9818 6.17003 24.802 6.2713 24.615 6.2713C24.5349 6.2713 24.4533 6.2527 24.3773 6.2124ZM26.5902 29.6902C26.4895 29.791 26.3572 29.8416 26.2249 29.8416C26.0927 29.8416 25.9604 29.791 25.8597 29.6902L25.1286 28.9592C24.9266 28.7571 24.9266 28.4306 25.1286 28.2286C25.3306 28.0266 25.6571 28.0266 25.8591 28.2286L26.5902 28.9597C26.7917 29.1612 26.7917 29.4882 26.5902 29.6902ZM26.9824 2.32655L26.505 3.2426C26.413 3.41982 26.2332 3.52057 26.0462 3.52057C25.9661 3.52057 25.8845 3.50197 25.808 3.46218C25.5548 3.33043 25.4567 3.01837 25.5884 2.7652L26.0658 1.84915C26.197 1.59598 26.5081 1.49627 26.7628 1.62957C27.016 1.76132 27.1141 2.0739 26.9824 2.32655Z" stroke="url(#paint2_linear_1515_3009)" stroke-width="2" mask="url(#path-5-inside-3_1515_3009)"/>
<path d="M16.55 15.5C16.55 16.0799 16.0799 16.55 15.5 16.55C14.9201 16.55 14.45 16.0799 14.45 15.5C14.45 14.9201 14.9201 14.45 15.5 14.45C16.0799 14.45 16.55 14.9201 16.55 15.5Z" stroke="url(#paint3_linear_1515_3009)"/>
<path d="M16.55 6.1999C16.55 6.7798 16.0799 7.2499 15.5 7.2499C14.9201 7.2499 14.45 6.7798 14.45 6.1999C14.45 5.62 14.9201 5.1499 15.5 5.1499C16.0799 5.1499 16.55 5.62 16.55 6.1999Z" stroke="url(#paint4_linear_1515_3009)"/>
<defs>
<linearGradient id="paint0_linear_1515_3009" x1="16.1027" y1="8.78036" x2="15.1386" y2="9.94643" gradientUnits="userSpaceOnUse">
<stop stop-color="#5390E3"/>
<stop offset="1" stop-color="#1357B3"/>
</linearGradient>
<linearGradient id="paint1_linear_1515_3009" x1="16.1027" y1="11.9611" x2="15.138" y2="13.1272" gradientUnits="userSpaceOnUse">
<stop stop-color="#5390E3"/>
<stop offset="1" stop-color="#1357B3"/>
</linearGradient>
<linearGradient id="paint2_linear_1515_3009" x1="26.1285" y1="2.81818" x2="0.751352" y2="23.2773" gradientUnits="userSpaceOnUse">
<stop stop-color="#5390E3"/>
<stop offset="1" stop-color="#1357B3"/>
</linearGradient>
<linearGradient id="paint3_linear_1515_3009" x1="16.8285" y1="14.2318" x2="14.2318" y2="16.8487" gradientUnits="userSpaceOnUse">
<stop stop-color="#5390E3"/>
<stop offset="1" stop-color="#1357B3"/>
</linearGradient>
<linearGradient id="paint4_linear_1515_3009" x1="16.8285" y1="4.93172" x2="14.2318" y2="7.5486" gradientUnits="userSpaceOnUse">
<stop stop-color="#5390E3"/>
<stop offset="1" stop-color="#1357B3"/>
</linearGradient>
</defs>
</svg>
