<svg width="33" height="32" viewBox="0 0 33 32" fill="none" xmlns="http://www.w3.org/2000/svg">
<g clip-path="url(#clip0_1219_3293)">
<path d="M14.5785 0.597142L14.5798 0.596995C16.7505 0.346813 18.9494 0.559779 21.0323 1.22194C23.1152 1.88411 25.0351 2.98053 26.6659 4.43935C28.2967 5.89818 29.6017 7.68644 30.495 9.68687C31.3883 11.6873 31.8498 13.8546 31.8492 16.0466V16.0468L31.8492 18.3669L31.8492 18.3692C31.8525 19.0822 31.7092 19.7883 31.4285 20.4433C31.1477 21.0983 30.7355 21.6882 30.2175 22.1762C29.6996 22.6642 29.087 23.0398 28.4181 23.2798C27.7502 23.5195 27.0403 23.6188 26.3326 23.5715C25.5663 23.5096 24.8238 23.2739 24.1613 22.8822C23.4979 22.4899 22.9319 21.9514 22.5064 21.3073L22.1605 20.7839L21.7275 21.2378C20.7314 22.2817 19.4569 23.0156 18.0564 23.3522C16.6558 23.6887 15.1883 23.6136 13.8291 23.1359C12.4699 22.6581 11.2764 21.7979 10.3914 20.6577C9.50646 19.5175 8.96747 18.1456 8.83909 16.7061C8.7107 15.2666 8.99839 13.8205 9.66763 12.5408C10.3369 11.2611 11.3593 10.2019 12.6125 9.48975C13.8657 8.77761 15.2967 8.44254 16.7345 8.52445C18.1723 8.60636 19.5564 9.1018 20.7211 9.95174L21.4745 10.5015L21.5154 9.56975C21.5291 9.25845 21.6654 8.96566 21.8941 8.75568C22.0073 8.65172 22.1397 8.57121 22.2838 8.51868C22.4278 8.46615 22.5808 8.4426 22.7338 8.44936C23.0429 8.463 23.3343 8.59922 23.5437 8.82857C23.7531 9.05796 23.8633 9.36171 23.8497 9.67302L23.8492 9.68397V9.69493V18.2971C23.8417 18.954 24.0574 19.5941 24.4612 20.112C24.8656 20.6308 25.4346 20.996 26.0744 21.1469L26.0744 21.147L26.0849 21.1493C26.4987 21.2375 26.927 21.232 27.3384 21.133C27.7498 21.0341 28.1339 20.8443 28.4626 20.5776C28.7913 20.3109 29.0564 19.974 29.2386 19.5916C29.4208 19.2093 29.5155 18.791 29.5159 18.3674V18.3669V16.0468C29.516 13.5012 28.7823 11.0097 27.403 8.87235C26.0237 6.73504 24.0576 5.04303 21.7412 4.00033C19.4248 2.95762 16.8572 2.60876 14.3476 2.99585C11.838 3.38294 9.49363 4.48944 7.59689 6.18185C5.70016 7.87426 4.33193 10.0804 3.65676 12.5344C2.9816 14.9884 3.02824 17.5858 3.79109 20.0139C4.55393 22.4419 6.00051 24.5972 7.95679 26.22C9.9131 27.8429 12.2957 28.864 14.8175 29.1602L14.8175 29.1603L14.8268 29.1612C15.1042 29.1885 15.362 29.3176 15.5508 29.5241C15.739 29.73 15.8453 29.9983 15.8492 30.2781V30.3819C15.8492 30.5419 15.8152 30.7001 15.7495 30.8458C15.6838 30.9915 15.5879 31.1214 15.4684 31.2269C15.3488 31.3323 15.2083 31.4109 15.0563 31.4575C14.9043 31.5042 14.7441 31.5177 14.5865 31.4974L14.5865 31.4973L14.5785 31.4964C10.7915 31.0698 7.29362 29.2587 4.75337 26.4089C2.21309 23.5589 0.808594 19.87 0.808594 16.0468C0.808594 12.2236 2.21309 8.53466 4.75337 5.68473C7.29362 2.83485 10.7915 1.02378 14.5785 0.597142ZM13.4782 20.3537C14.3279 20.9231 15.327 21.2271 16.3492 21.2271C17.72 21.2271 19.0343 20.681 20.0031 19.7093C20.9719 18.7377 21.5159 17.4202 21.5159 16.0468C21.5159 15.0225 21.213 14.0212 20.6455 13.1693C20.078 12.3174 19.2711 11.6533 18.3269 11.261C17.3826 10.8687 16.3435 10.7661 15.341 10.9661C14.3384 11.1661 13.4178 11.6597 12.6953 12.3843C11.9728 13.1088 11.481 14.0318 11.2818 15.0364C11.0825 16.041 11.1848 17.0823 11.5756 18.0287C11.9665 18.9752 12.6285 19.7843 13.4782 20.3537Z" stroke="url(#paint0_linear_1219_3293)"/>
</g>
<defs>
<linearGradient id="paint0_linear_1219_3293" x1="30.0606" y1="2.90547" x2="3.24625" y2="29.9526" gradientUnits="userSpaceOnUse">
<stop stop-color="#5390E3"/>
<stop offset="1" stop-color="#1357B3"/>
</linearGradient>
<clipPath id="clip0_1219_3293">
<rect width="32" height="32" fill="white" transform="translate(0.349609)"/>
</clipPath>
</defs>
</svg>
