<svg width="32" height="32" viewBox="0 0 32 32" fill="none" xmlns="http://www.w3.org/2000/svg">
<g clip-path="url(#clip0_1231_3012)">
<path d="M31.5311 29.2605L24.755 22.4859C24.4219 22.1541 23.9708 21.9677 23.5006 21.9677C23.0303 21.9677 22.5792 22.1541 22.2461 22.4859C20.4606 24.2119 18.1528 25.2971 15.6844 25.5713C13.2159 25.8455 10.7262 25.2933 8.60528 24.0012C6.48436 22.7091 4.85205 20.7501 3.96408 18.431C3.07611 16.112 2.98264 13.564 3.69831 11.1861C4.41398 8.80832 5.89837 6.73501 7.91892 5.29103C9.93948 3.84706 12.382 3.11399 14.864 3.20668C17.3459 3.29936 19.727 4.21257 21.6341 5.80322C23.5413 7.39388 24.8669 9.57212 25.4031 11.9967C25.7874 13.7557 25.7478 15.5808 25.2876 17.3215C25.2333 17.5254 25.2196 17.738 25.2474 17.9471C25.2753 18.1563 25.344 18.3579 25.4498 18.5405C25.5555 18.7231 25.6962 18.883 25.8638 19.0113C26.0314 19.1395 26.2227 19.2335 26.4266 19.2878C26.8384 19.3975 27.277 19.3392 27.6458 19.1257C28.0147 18.9121 28.2835 18.5608 28.3933 18.1491C29.2774 14.827 28.9488 11.2988 27.4665 8.19703C25.9842 5.09527 23.4452 2.62294 20.3047 1.22339C17.1643 -0.176156 13.6279 -0.41136 10.3297 0.559958C7.0315 1.53128 4.18729 3.64558 2.30713 6.52369C0.426966 9.40181 -0.366157 12.8555 0.0699917 16.2653C0.506141 19.6751 2.14303 22.8181 4.68711 25.1306C7.2312 27.443 10.516 28.7736 13.9526 28.8839C17.3891 28.9941 20.7525 27.8767 23.4396 25.7321L29.2595 31.5444C29.4086 31.6938 29.5856 31.8123 29.7805 31.8931C29.9754 31.974 30.1843 32.0156 30.3953 32.0156C30.6063 32.0156 30.8152 31.974 31.0101 31.8931C31.205 31.8123 31.382 31.6938 31.5311 31.5444C31.6824 31.3952 31.8025 31.2174 31.8846 31.0214C31.9666 30.8253 32.0088 30.615 32.0088 30.4025C32.0088 30.19 31.9666 29.9796 31.8846 29.7836C31.8025 29.5875 31.6824 29.4097 31.5311 29.2605V29.2605Z" fill="url(#paint0_linear_1231_3012)"/>
<path d="M19.249 19.2462C18.9927 19.0081 18.6646 18.8619 18.3162 18.8306C17.9677 18.7992 17.6187 18.8845 17.324 19.073C16.4921 19.5862 15.5378 19.867 14.5605 19.8862C13.5832 19.9054 12.6186 19.6622 11.7672 19.182C11.4786 19.0136 11.1431 18.9433 10.8111 18.9814C10.4792 19.0196 10.1685 19.1642 9.9256 19.3937L9.82935 19.4836C9.65702 19.6477 9.52491 19.8494 9.44332 20.0729C9.36172 20.2965 9.33284 20.5359 9.35892 20.7724C9.385 21.0089 9.46534 21.2362 9.59368 21.4367C9.72202 21.6371 9.8949 21.8051 10.0988 21.9278C11.4706 22.7186 13.0324 23.1198 14.6155 23.0881C16.1987 23.0565 17.7431 22.5932 19.0822 21.7482C19.2779 21.6239 19.4431 21.4572 19.5656 21.2605C19.6881 21.0638 19.7649 20.8421 19.7901 20.6117C19.8154 20.3813 19.7885 20.1482 19.7115 19.9296C19.6345 19.711 19.5094 19.5125 19.3453 19.3488L19.249 19.2462Z" fill="#E8EBF0"/>
</g>
<defs>
<linearGradient id="paint0_linear_1231_3012" x1="29.7191" y1="2.88388" x2="2.87637" y2="29.9438" gradientUnits="userSpaceOnUse">
<stop stop-color="#5390E3"/>
<stop offset="1" stop-color="#1357B3"/>
</linearGradient>
<clipPath id="clip0_1231_3012">
<rect width="32" height="32" fill="white"/>
</clipPath>
</defs>
</svg>
