<svg width="50" height="49" viewBox="0 0 50 49" fill="none" xmlns="http://www.w3.org/2000/svg">
<path d="M5.65472 7.64099L3.39476 6.15381L3.12357 8.7368L1.58679 10.4588L4.20835 10.6936L6.46831 12.1025L6.7395 9.5978L8.27628 7.79753L5.65472 7.64099Z" fill="#1565F2"/>
<ellipse cx="29.8117" cy="15.2308" rx="17.3105" ry="15.2308" fill="url(#paint0_linear_1203_3058)"/>
<path d="M20.7488 19.2762C21.3824 21.4746 20.8696 25.2453 19.2101 27.1275C20.7157 28.1459 21.4377 28.5581 22.4685 29.0118C25.5525 30.1166 26.925 30.429 28.9851 30.4251C31.504 30.5545 32.8938 30.3511 35.3208 29.6399C39.3136 28.4293 40.9322 27.2868 43.2856 24.8506H37.493C36.8837 24.5225 36.6442 24.3104 36.5879 23.83C36.5556 23.4005 36.7485 23.183 37.2215 22.8093C40.6831 20.0473 42.719 18.4804 44.0097 16.1357C44.2404 14.9696 44.2551 14.2856 44.0097 12.9952C43.7597 12.1291 43.4666 11.5034 42.9235 11.582C42.3804 11.6605 36.6784 13.7803 35.5923 13.7803C34.5062 13.7803 34.1459 13.4704 33.6011 12.7596C33.1001 12.2137 32.7866 11.9745 31.8814 12.053C30.9763 12.1315 30.2644 12.2789 28.9851 12.3671C27.9068 11.2624 27.4129 10.6165 26.5414 9.4621C26.0749 8.95437 25.5457 8.59846 24.8217 8.75548C24.0977 8.91251 23.9545 9.24563 23.8261 9.85466V11.896C23.8261 11.896 22.197 10.6398 21.2014 9.85466C20.2057 9.06953 19.2101 8.51994 18.3051 8.99102C17.4 9.4621 17.348 10.0369 17.4905 11.0324C19.0528 14.8169 20.1152 17.0779 20.7488 19.2762Z" fill="#000429"/>
<path d="M47.1037 24.7187H43.4917C41.1213 26.9952 39.6024 28.0255 36.4484 29.296C34.1547 30.2316 32.6437 30.3974 29.7662 30.4009C26.4856 30.4908 24.9717 30.0278 22.3617 29.0593C21.2381 28.5609 20.4843 28.1029 19.1109 27.2441C17.5635 28.6104 16.667 29.3257 14.6862 29.9274C12.3661 30.6012 10.9763 30.4494 8.45554 29.9274C6.50154 29.3339 5.47565 28.8225 4.39206 26.7706C4.03086 25.6657 4.07927 24.7094 4.93386 22.6667C3.21342 23.3464 2.3524 24.0745 1.23159 26.7706C0.75781 28.3029 0.988104 30.0227 2.13458 31.8215C3.5387 33.4916 4.45713 34.2666 6.83015 34.7415C7.5221 35.6681 7.42263 36.2638 6.92044 37.5037L2.49578 44.6854C2.03448 46.3038 2.28145 46.991 3.94057 47.6844C5.01331 47.8874 5.54004 47.8935 6.10776 47.3687C7.56922 46.2483 8.40244 45.4512 9.90033 43.8962H10.2615L10.1818 46.9709C10.1818 47.3655 11 48.0001 11.9772 48.0001C12.9091 48.0001 12.8498 47.8423 13.3317 47.5266L20.1945 40.5027H24.4385C29.2154 40.1506 33.6998 38.2055 37.7126 33.9523C41.9181 33.9251 44.5491 33.9394 46.2007 33.6366C47.3636 33.2751 47.917 32.7171 47.9164 31.5058C47.8481 30.3151 47.5455 29.7126 46.2007 29.296H44.8462V29.0593H47.1037C48.1818 29.0001 48.9979 28.0583 49 26.8495C49 25.5959 48.5455 24.8042 47.1037 24.7187Z" fill="url(#paint1_linear_1203_3058)" stroke="url(#paint2_linear_1203_3058)" stroke-width="1.19658"/>
<ellipse cx="40.2567" cy="7.43586" rx="1.46699" ry="1.28205" fill="#060129"/>
<path d="M33.3435 2.9395C30.8681 2.37636 29.4944 2.31839 27.0538 2.37701C29.8056 2.89766 31.3934 3.45803 33.8826 4.70734C34.9012 5.21856 35.7695 6.15376 36.3985 6.15376C37.0274 6.15376 37.2994 5.92754 37.4767 5.51091C37.6035 4.50789 37.303 3.94528 33.3435 2.9395Z" fill="#00092C"/>
<defs>
<linearGradient id="paint0_linear_1203_3058" x1="42.5668" y1="4.78453" x2="20.3186" y2="28.5639" gradientUnits="userSpaceOnUse">
<stop stop-color="#0CF0FA"/>
<stop offset="1" stop-color="#0193FC"/>
</linearGradient>
<linearGradient id="paint1_linear_1203_3058" x1="49.0393" y1="24.8765" x2="4.63828" y2="51.778" gradientUnits="userSpaceOnUse">
<stop stop-color="#04F8FD"/>
<stop offset="1" stop-color="#036AFC"/>
</linearGradient>
<linearGradient id="paint2_linear_1203_3058" x1="2.49576" y1="46.5006" x2="44.7594" y2="19.7209" gradientUnits="userSpaceOnUse">
<stop stop-color="#006BFF"/>
<stop offset="1" stop-color="#03FAFB"/>
</linearGradient>
</defs>
</svg>
