<svg width="52" height="51" viewBox="0 0 52 51" fill="none" xmlns="http://www.w3.org/2000/svg">
<path d="M5.84866 8.4593L3.49454 6.91016L3.21204 9.60078L1.61124 11.3945L4.34202 11.6391L6.69615 13.1067L6.97865 10.4976L8.57945 8.62237L5.84866 8.4593Z" fill="#1565F2"/>
<ellipse cx="31.0122" cy="16.3654" rx="18.0318" ry="15.8654" fill="url(#paint0_linear_1203_3058)"/>
<path d="M21.5717 20.5797C22.2317 22.8696 21.6975 26.7974 19.9689 28.7581C21.5372 29.8189 22.2892 30.2482 23.363 30.7209C26.5756 31.8717 28.0053 32.1971 30.1511 32.193C32.775 32.3278 34.2227 32.116 36.7508 31.3752C40.91 30.1141 42.596 28.924 45.0475 26.3863H39.0136C38.3788 26.0445 38.1294 25.8236 38.0707 25.3232C38.0371 24.8758 38.238 24.6492 38.7307 24.26C42.3366 21.3828 44.4573 19.7507 45.8017 17.3083C46.0421 16.0936 46.0574 15.3811 45.8017 14.0369C45.5414 13.1348 45.2361 12.483 44.6703 12.5648C44.1046 12.6466 38.165 14.8548 37.0337 14.8548C35.9023 14.8548 35.527 14.532 34.9595 13.7916C34.4377 13.2229 34.111 12.9737 33.1682 13.0555C32.2253 13.1373 31.4837 13.2908 30.1512 13.3826C29.0279 12.2319 28.5134 11.5591 27.6056 10.3566C27.1197 9.82774 26.5685 9.457 25.8143 9.62057C25.0601 9.78414 24.911 10.1311 24.7772 10.7655V12.8919C24.7772 12.8919 23.0802 11.5834 22.0431 10.7655C21.0059 9.94771 19.9689 9.37522 19.0261 9.86592C18.0833 10.3566 18.0291 10.9554 18.1776 11.9923C19.805 15.9345 20.9117 18.2897 21.5717 20.5797Z" fill="#000429"/>
<path d="M49.0247 26.2485H45.2622C42.793 28.6199 41.2108 29.6931 37.9254 31.0166C35.5361 31.9911 33.9622 32.1638 30.9648 32.1675C27.5475 32.2612 25.9705 31.7788 23.2517 30.77C22.0814 30.2508 21.2962 29.7737 19.8655 28.8792C18.2537 30.3024 17.3198 31.0475 15.2565 31.6742C12.8397 32.3762 11.392 32.218 8.76619 31.6742C6.73077 31.056 5.66214 30.5233 4.53339 28.3859C4.15715 27.235 4.20757 26.2389 5.09777 24.1111C3.30564 24.819 2.40875 25.5775 1.24124 28.3859C0.747718 29.9821 0.987609 31.7735 2.18186 33.6472C3.64448 35.387 4.60118 36.1942 7.07307 36.689C7.79385 37.6542 7.69024 38.2747 7.16713 39.5662L2.5581 47.0472C2.07758 48.733 2.33484 49.4488 4.06309 50.1711C5.18053 50.3825 5.72921 50.3889 6.32058 49.8423C7.84294 48.6752 8.71088 47.8448 10.2712 46.2251H10.6474L10.5644 49.4279C10.5644 49.8389 11.4167 50.5 12.4346 50.5C13.4053 50.5 13.3435 50.3356 13.8455 50.0067L20.9942 42.6902H25.4151C30.391 42.3234 35.0622 40.2972 39.2422 35.8669C43.6231 35.8386 46.3637 35.8534 48.0841 35.538C49.2955 35.1614 49.8719 34.5802 49.8713 33.3184C49.8001 32.0781 49.4848 31.4505 48.0841 31.0166H46.6731V30.77H49.0247C50.1477 30.7083 50.9978 29.7272 51 28.4681C51 27.1623 50.5265 26.3376 49.0247 26.2485Z" fill="url(#paint1_linear_1203_3058)" stroke="url(#paint2_linear_1203_3058)" stroke-width="0.925481"/>
<ellipse cx="41.8924" cy="8.24563" rx="1.52812" ry="1.33547" fill="#060129"/>
<path d="M34.6911 3.56233C32.1126 2.97572 30.6817 2.91534 28.1393 2.97639C31.0059 3.51875 32.6598 4.10246 35.2527 5.40383C36.3137 5.93635 37.2182 6.91051 37.8734 6.91051C38.5286 6.91051 38.8119 6.67486 38.9966 6.24087C39.1286 5.19607 38.8156 4.61001 34.6911 3.56233Z" fill="#00092C"/>
<defs>
<linearGradient id="paint0_linear_1203_3058" x1="44.2988" y1="5.48388" x2="21.1235" y2="30.2541" gradientUnits="userSpaceOnUse">
<stop stop-color="#0CF0FA"/>
<stop offset="1" stop-color="#0193FC"/>
</linearGradient>
<linearGradient id="paint1_linear_1203_3058" x1="51.0409" y1="26.4129" x2="4.78989" y2="54.4353" gradientUnits="userSpaceOnUse">
<stop stop-color="#04F8FD"/>
<stop offset="1" stop-color="#036AFC"/>
</linearGradient>
<linearGradient id="paint2_linear_1203_3058" x1="2.55808" y1="48.938" x2="46.5826" y2="21.0425" gradientUnits="userSpaceOnUse">
<stop stop-color="#006BFF"/>
<stop offset="1" stop-color="#03FAFB"/>
</linearGradient>
</defs>
</svg>
