<svg width="178" height="189" viewBox="0 0 178 189" fill="none" xmlns="http://www.w3.org/2000/svg">
<path d="M9.10544 150.085H15.2142C15.5215 150.085 15.7712 150.2 15.9633 150.431C16.1939 150.661 16.3091 150.93 16.3091 151.237V151.468C16.3091 151.775 16.1939 152.044 15.9633 152.275C15.7712 152.505 15.5215 152.62 15.2142 152.62H9.10544L9.04781 177.804C9.04781 178.534 8.68283 178.899 7.95285 178.899H7.49182C6.72343 178.899 6.33923 178.534 6.33923 177.804L6.39686 145.647C6.35844 142.804 7.08841 140.614 8.58678 139.078C10.1236 137.502 12.2174 136.715 14.8684 136.715C16.5973 136.715 17.4617 137.099 17.4617 137.867V138.328C17.4617 138.597 17.3464 138.847 17.1159 139.078C16.9238 139.308 16.6741 139.423 16.3667 139.423H14.926C13.1203 139.423 11.6988 139.961 10.6614 141.037C9.62411 142.113 9.10544 143.669 9.10544 145.705V150.085ZM2.65095 150.085H4.03406C4.37983 150.085 4.64877 150.2 4.84087 150.431C5.07139 150.661 5.18664 150.93 5.18664 151.237V151.468C5.18664 151.775 5.07139 152.044 4.84087 152.275C4.64877 152.505 4.37983 152.62 4.03406 152.62H2.65095C2.30518 152.62 2.01703 152.505 1.78651 152.275C1.59441 152.044 1.49836 151.775 1.49836 151.468V151.237C1.49836 150.93 1.59441 150.661 1.78651 150.431C2.01703 150.2 2.30518 150.085 2.65095 150.085ZM23.3939 159.478C23.3939 156.443 24.316 154.1 26.1601 152.448C28.0043 150.795 30.4055 149.969 33.3638 149.969C36.3221 149.969 38.7041 150.815 40.5099 152.505C42.3156 154.157 43.2184 156.482 43.2184 159.478V169.506C43.2184 172.503 42.3156 174.846 40.5099 176.537C38.7041 178.189 36.3221 179.015 33.3638 179.015C30.4439 179.015 28.0427 178.189 26.1601 176.537C24.316 174.846 23.3939 172.503 23.3939 169.506V159.478ZM40.5099 159.478C40.5099 157.288 39.8375 155.617 38.4928 154.465C37.1481 153.274 35.4385 152.678 33.3638 152.678C31.2892 152.678 29.5603 153.274 28.1772 154.465C26.7941 155.617 26.1025 157.288 26.1025 159.478V169.506C26.1025 171.696 26.7941 173.386 28.1772 174.577C29.5603 175.73 31.2892 176.306 33.3638 176.306C35.4385 176.306 37.1481 175.73 38.4928 174.577C39.8375 173.386 40.5099 171.696 40.5099 169.506V159.478ZM53.5863 136.83H54.0474C54.7773 136.83 55.1423 137.195 55.1423 137.925V170.024C55.1423 174.135 56.8904 176.191 60.3866 176.191H61.3087C61.616 176.191 61.8657 176.306 62.0578 176.537C62.2884 176.767 62.4036 177.017 62.4036 177.286V177.747C62.4036 178.515 61.7121 178.899 60.329 178.899C57.7164 178.899 55.7378 178.15 54.3931 176.652C53.0484 175.154 52.3953 172.964 52.4337 170.082V137.925C52.4337 137.195 52.8179 136.83 53.5863 136.83ZM70.5262 136.83H70.9872C71.7172 136.83 72.0822 137.195 72.0822 137.925V170.024C72.0822 174.135 73.8303 176.191 77.3265 176.191H78.2485C78.5559 176.191 78.8056 176.306 78.9977 176.537C79.2282 176.767 79.3435 177.017 79.3435 177.286V177.747C79.3435 178.515 78.6519 178.899 77.2688 178.899C74.6563 178.899 72.6777 178.15 71.333 176.652C69.9883 175.154 69.3352 172.964 69.3736 170.082V137.925C69.3736 137.195 69.7578 136.83 70.5262 136.83ZM86.3135 159.478C86.3135 156.443 87.2356 154.1 89.0797 152.448C90.9238 150.795 93.3251 149.969 96.2834 149.969C99.2417 149.969 101.624 150.815 103.429 152.505C105.235 154.157 106.138 156.482 106.138 159.478V169.506C106.138 172.503 105.235 174.846 103.429 176.537C101.624 178.189 99.2417 179.015 96.2834 179.015C93.3635 179.015 90.9623 178.189 89.0797 176.537C87.2356 174.846 86.3135 172.503 86.3135 169.506V159.478ZM103.429 159.478C103.429 157.288 102.757 155.617 101.412 154.465C100.068 153.274 98.358 152.678 96.2834 152.678C94.2087 152.678 92.4798 153.274 91.0967 154.465C89.7136 155.617 89.0221 157.288 89.0221 159.478V169.506C89.0221 171.696 89.7136 173.386 91.0967 174.577C92.4798 175.73 94.2087 176.306 96.2834 176.306C98.358 176.306 100.068 175.73 101.412 174.577C102.757 173.386 103.429 171.696 103.429 169.506V159.478ZM141.863 150.085H142.381C142.727 150.085 142.996 150.219 143.188 150.488C143.38 150.719 143.476 150.93 143.476 151.122C143.476 151.276 143.304 152.083 142.958 153.542C142.612 155.002 141.728 158.672 140.307 164.55C138.924 170.389 137.867 174.731 137.137 177.574C136.83 178.534 136.119 179.015 135.005 179.015C133.891 179.015 133.122 178.438 132.7 177.286L127.513 160.343C125.054 168.18 123.325 173.828 122.326 177.286C121.904 178.438 121.135 179.015 120.021 179.015C118.907 179.015 118.196 178.534 117.889 177.574L111.55 151.468C111.511 151.353 111.492 151.218 111.492 151.064C111.492 150.872 111.569 150.661 111.723 150.431C111.915 150.2 112.203 150.085 112.587 150.085H113.106C113.72 150.085 114.085 150.373 114.201 150.949L120.079 175.326L125.727 157.058C125.957 155.982 126.533 155.444 127.455 155.444C128.416 155.444 129.069 155.963 129.415 157C130.644 161.265 132.488 167.374 134.947 175.326L140.883 150.949C141.037 150.373 141.363 150.085 141.863 150.085ZM169.177 138.559H169.811C170.272 138.559 170.598 138.751 170.791 139.135C171.021 139.519 171.021 139.904 170.791 140.288V140.23L161.051 157.98C161.013 158.018 160.936 158.114 160.821 158.268C160.744 158.422 160.667 158.537 160.59 158.614L160.936 159.075L171.367 177.228C171.482 177.42 171.54 177.612 171.54 177.804C171.54 177.997 171.463 178.227 171.309 178.496C171.156 178.765 170.848 178.899 170.387 178.899H169.696C169.273 178.899 168.985 178.784 168.831 178.554L158.861 161.265C158.477 161.918 156.94 164.396 154.251 168.699C151.6 172.964 149.602 176.191 148.257 178.381C147.988 178.727 147.662 178.899 147.278 178.899H146.586C146.087 178.899 145.741 178.707 145.549 178.323C145.357 177.939 145.376 177.536 145.606 177.113L156.902 159.075V159.133C157.056 158.825 157.19 158.614 157.305 158.499C157.152 158.345 157.056 158.21 157.017 158.095L145.088 140.345C144.973 140.153 144.915 139.961 144.915 139.769C144.915 139.577 144.992 139.327 145.145 139.02C145.299 138.713 145.606 138.559 146.068 138.559H146.701C147.086 138.559 147.412 138.732 147.681 139.078L158.976 155.848L168.255 138.905C168.408 138.674 168.716 138.559 169.177 138.559Z" fill="white"/>
<path d="M48.7264 18.2697L44.0041 14.7139L43.4374 20.8898L40.2262 25.0071L45.7041 25.5686L50.4265 28.9373L50.9932 22.9485L54.2044 18.644L48.7264 18.2697Z" fill="#1565F2"/>
<ellipse cx="99.2043" cy="36.4169" rx="36.1716" ry="36.4169" fill="url(#paint0_linear_1204_3066)"/>
<path d="M80.2666 46.089C81.5906 51.3453 80.5191 60.361 77.0515 64.8615C80.1975 67.2965 81.706 68.2819 83.86 69.3669C90.3044 72.0084 93.1723 72.7553 97.477 72.7459C102.74 73.0553 105.644 72.5691 110.716 70.8687C119.059 67.974 122.441 65.2424 127.359 59.4174H115.255C113.982 58.6328 113.481 58.1257 113.364 56.977C113.296 55.9501 113.699 55.4301 114.688 54.5366C121.921 47.9325 126.175 44.1862 128.872 38.58C129.354 35.7918 129.385 34.1563 128.872 31.071C128.35 29.0002 127.737 27.5042 126.602 27.6919C125.468 27.8797 113.553 32.9482 111.283 32.9482C109.014 32.9482 108.261 32.2073 107.122 30.5078C106.076 29.2024 105.42 28.6305 103.529 28.8183C101.638 29.006 100.15 29.3583 97.4771 29.5692C95.2237 26.9279 94.1916 25.3834 92.3707 22.6233C91.396 21.4093 90.2902 20.5584 88.7773 20.9338C87.2643 21.3093 86.9652 22.1058 86.6969 23.562V28.4428C86.6969 28.4428 83.2927 25.4392 81.2122 23.562C79.1318 21.6847 77.0514 20.3706 75.1602 21.497C73.269 22.6233 73.1603 23.9977 73.4581 26.3778C76.7228 35.4266 78.9426 40.8327 80.2666 46.089Z" fill="#000429"/>
<path d="M135.337 59.102H127.79C122.837 64.5451 119.663 67.0086 113.072 70.0465C108.279 72.2834 105.122 72.6797 99.1092 72.6882C92.2541 72.9032 89.0907 71.796 83.6368 69.4804C81.289 68.2888 79.714 67.1937 76.844 65.1403C73.6107 68.4072 71.7374 70.1173 67.5984 71.556C62.7503 73.1672 59.8463 72.8042 54.5789 71.556C50.4959 70.137 48.3522 68.9143 46.088 64.0081C45.3332 61.3663 45.4344 59.0799 47.2201 54.1958C43.6251 55.8207 41.8259 57.5619 39.4839 64.0081C38.4939 67.672 38.9751 71.7839 41.3708 76.0848C44.3048 80.0782 46.2239 81.931 51.1825 83.0666C52.6284 85.2822 52.4206 86.7065 51.3712 89.6711L42.1255 106.843C41.1616 110.712 41.6777 112.355 45.1445 114.013C47.3861 114.498 48.4868 114.513 49.673 113.258C52.7269 110.58 54.468 108.673 57.5979 104.956H58.3527L58.1861 112.307C58.1861 113.251 59.8958 114.768 61.9377 114.768C63.8849 114.768 63.761 114.391 64.768 113.636L79.1083 96.8416H87.9766C97.9581 95.9998 107.329 91.349 115.714 81.1797C124.502 81.1147 129.999 81.1487 133.45 80.4249C135.88 79.5604 137.037 78.2262 137.035 75.33C136.893 72.4831 136.26 71.0424 133.45 70.0465H130.62V69.4804H135.337C137.59 69.3388 139.295 67.0869 139.3 64.1968C139.3 61.1995 138.35 59.3066 135.337 59.102Z" fill="url(#paint1_linear_1204_3066)" stroke="url(#paint2_linear_1204_3066)" stroke-width="0.245231"/>
<circle cx="121.03" cy="17.7793" r="3.06539" fill="#060129"/>
<path d="M106.584 7.02839C101.412 5.68192 98.5412 5.54331 93.4413 5.68346C99.1916 6.92836 102.509 8.2682 107.711 11.2553C109.839 12.4776 111.654 14.7137 112.968 14.7137C114.282 14.7137 114.85 14.1728 115.221 13.1766C115.486 10.7784 114.858 9.43322 106.584 7.02839Z" fill="#00092C"/>
<defs>
<linearGradient id="paint0_linear_1204_3066" x1="125.857" y1="11.4399" x2="72.6672" y2="61.1232" gradientUnits="userSpaceOnUse">
<stop stop-color="#0CF0FA"/>
<stop offset="1" stop-color="#0193FC"/>
</linearGradient>
<linearGradient id="paint1_linear_1204_3066" x1="139.382" y1="59.4794" x2="40.3183" y2="111.933" gradientUnits="userSpaceOnUse">
<stop stop-color="#04F8FD"/>
<stop offset="1" stop-color="#036AFC"/>
</linearGradient>
<linearGradient id="paint2_linear_1204_3066" x1="42.1255" y1="111.183" x2="136.849" y2="58.7291" gradientUnits="userSpaceOnUse">
<stop stop-color="#006BFF"/>
<stop offset="1" stop-color="#03FAFB"/>
</linearGradient>
</defs>
</svg>
