<svg width="36" height="34" viewBox="0 0 36 34" fill="none" xmlns="http://www.w3.org/2000/svg">
<path d="M15.4448 12.2916C16.8627 12.2916 18.0121 11.1422 18.0121 9.7243C18.0121 8.30641 16.8627 7.15698 15.4448 7.15698C14.0269 7.15698 12.8774 8.30641 12.8774 9.7243C12.8774 11.1422 14.0269 12.2916 15.4448 12.2916Z" fill="url(#paint0_linear_1317_3066)"/>
<path d="M34.3598 13.3428H10.188V20.5803H34.3599V13.3428H34.3598ZM12.8778 16.9616C12.8778 15.5438 14.0273 14.3943 15.4451 14.3943C16.8631 14.3943 18.0124 15.5437 18.0124 16.9616C18.0124 18.3795 16.863 19.5289 15.4451 19.5289C14.0273 19.5289 12.8778 18.3795 12.8778 16.9616Z" fill="url(#paint1_linear_1317_3066)"/>
<path d="M34.3598 5.07656H23.0276C22.4596 5.07656 21.999 5.53717 21.999 6.10516C21.999 6.67314 22.4596 7.13376 23.0276 7.13376H33.3312V12.3139H17.9358C18.6164 11.6591 19.0412 10.7404 19.0412 9.72372C19.0412 8.70531 18.615 7.78506 17.9322 7.13017C18.4675 7.0941 18.891 6.64959 18.891 6.10502C18.891 5.53703 18.4304 5.07642 17.8624 5.07642H10.188C9.62004 5.07642 9.15942 5.53703 9.15942 6.10502V13.3424V20.5798C9.15942 21.1478 9.62004 21.6084 10.188 21.6084H34.3598C34.9278 21.6084 35.3884 21.1478 35.3884 20.5798V13.3425V6.10509C35.3884 5.53717 34.9278 5.07656 34.3598 5.07656ZM15.4452 8.18521C16.2936 8.18521 16.9839 8.87554 16.9839 9.72393C16.9839 10.5723 16.2936 11.2626 15.4452 11.2626C14.5968 11.2626 13.9065 10.5723 13.9065 9.72393C13.9065 8.87554 14.5968 8.18521 15.4452 8.18521ZM11.2166 7.13383H12.9546C12.2741 7.78844 11.8494 8.70721 11.8494 9.72393C11.8494 10.7406 12.2742 11.6594 12.9548 12.3141H11.2167V7.13383H11.2166ZM12.9531 19.5515H11.2166V14.3714H12.9533C12.2731 15.026 11.8494 15.9452 11.8494 16.9615C11.8492 17.9777 12.273 18.8968 12.9531 19.5515ZM15.4452 18.5001C14.5968 18.5001 13.9065 17.8098 13.9065 16.9614C13.9065 16.113 14.5968 15.4227 15.4452 15.4227C16.2936 15.4227 16.9839 16.113 16.9839 16.9614C16.9839 17.8098 16.2936 18.5001 15.4452 18.5001ZM33.3312 19.5515H17.9374C18.6174 18.8969 19.0412 17.9777 19.0412 16.9614C19.0412 15.945 18.6174 15.0259 17.9373 14.3712H33.3313L33.3312 19.5515Z" fill="url(#paint2_linear_1317_3066)"/>
<path d="M30.9873 17.9901H23.5371C22.9692 17.9901 22.5085 17.5294 22.5085 16.9615C22.5085 16.3935 22.9692 15.9329 23.5371 15.9329H30.9874C31.5554 15.9329 32.016 16.3935 32.016 16.9615C32.016 17.5294 31.5554 17.9901 30.9873 17.9901Z" fill="url(#paint3_linear_1317_3066)"/>
<path d="M34.9713 25.6492H6.16987C5.60188 25.6492 5.14127 25.1886 5.14127 24.6206V4.67246L0.55408 2.28612C0.0501506 2.02392 -0.145881 1.40285 0.116315 0.898922C0.37844 0.395203 0.999369 0.198609 1.50351 0.461156L6.64455 3.13556C6.98493 3.31261 7.19847 3.66438 7.19847 4.04808V23.5919H34.9713C35.5393 23.5919 35.9999 24.0526 35.9999 24.6205C36 25.1886 35.5395 25.6492 34.9713 25.6492Z" fill="url(#paint4_linear_1317_3066)"/>
<path d="M11.8343 33.655C9.85153 33.655 8.23828 32.0419 8.23828 30.0591C8.23828 29.4911 8.6989 29.0305 9.26688 29.0305C9.83487 29.0305 10.2955 29.4911 10.2955 30.0591C10.2955 30.9074 10.9858 31.5978 11.8342 31.5978C12.6826 31.5978 13.3729 30.9074 13.3729 30.0591C13.3729 29.2107 12.6826 28.5203 11.8342 28.5203C11.2662 28.5203 10.8056 28.0597 10.8056 27.4917C10.8056 26.9238 11.2662 26.4631 11.8342 26.4631C13.8169 26.4631 15.4302 28.0763 15.4302 30.0591C15.4302 32.0419 13.817 33.655 11.8343 33.655Z" fill="url(#paint5_linear_1317_3066)"/>
<path d="M28.8024 33.655C26.8197 33.655 25.2064 32.0419 25.2064 30.0591C25.2064 29.4911 25.667 29.0305 26.235 29.0305C26.803 29.0305 27.2636 29.4911 27.2636 30.0591C27.2636 30.9074 27.954 31.5978 28.8023 31.5978C29.6507 31.5978 30.3411 30.9074 30.3411 30.0591C30.3411 29.2107 29.6507 28.5203 28.8023 28.5203C28.2344 28.5203 27.7737 28.0597 27.7737 27.4917C27.7737 26.9238 28.2344 26.4631 28.8023 26.4631C30.7851 26.4631 32.3983 28.0763 32.3983 30.0591C32.3983 32.0419 30.7852 33.655 28.8024 33.655Z" fill="url(#paint6_linear_1317_3066)"/>
<defs>
<linearGradient id="paint0_linear_1317_3066" x1="17.6453" y1="7.62377" x2="13.3442" y2="11.9582" gradientUnits="userSpaceOnUse">
<stop stop-color="#5390E3"/>
<stop offset="1" stop-color="#1357B3"/>
</linearGradient>
<linearGradient id="paint1_linear_1317_3066" x1="32.6334" y1="14.0007" x2="29.3229" y2="25.1427" gradientUnits="userSpaceOnUse">
<stop stop-color="#5390E3"/>
<stop offset="1" stop-color="#1357B3"/>
</linearGradient>
<linearGradient id="paint2_linear_1317_3066" x1="35.3884" y1="5.07642" x2="20.4736" y2="28.7397" gradientUnits="userSpaceOnUse">
<stop stop-color="#1B69D2"/>
<stop offset="1" stop-color="#07346F"/>
</linearGradient>
<linearGradient id="paint3_linear_1317_3066" x1="32.016" y1="15.9329" x2="31.1655" y2="19.8632" gradientUnits="userSpaceOnUse">
<stop stop-color="#1B69D2"/>
<stop offset="1" stop-color="#07346F"/>
</linearGradient>
<linearGradient id="paint4_linear_1317_3066" x1="35.9999" y1="0.344727" x2="12.1904" y2="34.2179" gradientUnits="userSpaceOnUse">
<stop stop-color="#1B69D2"/>
<stop offset="1" stop-color="#07346F"/>
</linearGradient>
<linearGradient id="paint5_linear_1317_3066" x1="15.4302" y1="26.4631" x2="8.23828" y2="33.655" gradientUnits="userSpaceOnUse">
<stop stop-color="#1B69D2"/>
<stop offset="1" stop-color="#07346F"/>
</linearGradient>
<linearGradient id="paint6_linear_1317_3066" x1="32.3983" y1="26.4631" x2="25.2064" y2="33.655" gradientUnits="userSpaceOnUse">
<stop stop-color="#1B69D2"/>
<stop offset="1" stop-color="#07346F"/>
</linearGradient>
</defs>
</svg>
