<svg width="36" height="30" viewBox="0 0 36 30" fill="none" xmlns="http://www.w3.org/2000/svg">
<path d="M31.3237 23.8934L35.3476 21.8811L24.4005 17.8479L28.4338 28.7956L30.446 24.7711L34.6649 28.9899C34.7859 29.1109 34.9448 29.1718 35.1037 29.1718C35.2626 29.1718 35.4215 29.1109 35.5425 28.9899C35.7852 28.7472 35.7852 28.3549 35.5425 28.1122L31.3237 23.8934ZM26.496 19.9433L32.2262 22.0549L29.8135 23.2609L28.6075 25.6742L26.496 19.9433Z" fill="url(#paint0_linear_1335_3010)"/>
<path d="M35.9969 0.606414C35.9957 0.537517 35.9851 0.468621 35.9597 0.401586C35.9578 0.397241 35.9547 0.394138 35.9534 0.389793C35.9466 0.373034 35.9354 0.359379 35.9274 0.343241C35.9019 0.292965 35.8721 0.247035 35.8355 0.20669C35.8194 0.18869 35.802 0.174414 35.784 0.158276C35.7455 0.124759 35.7039 0.0968276 35.6586 0.073862C35.6381 0.0633103 35.6195 0.052138 35.5978 0.044069C35.5283 0.0180001 35.4563 0 35.3793 0H0.62069C0.543724 0 0.471724 0.0180001 0.402828 0.044069C0.381103 0.052138 0.362483 0.0633103 0.342 0.073862C0.29669 0.0968276 0.255103 0.124759 0.216 0.158276C0.198 0.174414 0.181241 0.18869 0.165103 0.20669C0.127862 0.247035 0.098069 0.293586 0.0726207 0.343862C0.0645517 0.359379 0.0533793 0.373034 0.0465517 0.389793C0.0446897 0.393517 0.0415862 0.397241 0.0397241 0.400965C0.0142759 0.468 0.00434483 0.536896 0.00248276 0.605793C0.00248276 0.611379 0 0.615724 0 0.62069V24.8276C0 24.8294 0.00124138 24.8313 0.00124138 24.8332C0.00186207 24.8996 0.0117931 24.966 0.0341379 25.0312C0.0366207 25.0386 0.0422069 25.0448 0.0453103 25.0523C0.0533793 25.0734 0.0664138 25.0914 0.0769655 25.1112C0.101172 25.1572 0.127862 25.1994 0.162 25.2372C0.179379 25.2565 0.196759 25.2732 0.216621 25.29C0.253862 25.3229 0.294828 25.3496 0.338897 25.3725C0.36 25.3837 0.379862 25.3955 0.402207 25.4042C0.471103 25.4303 0.543724 25.4483 0.62069 25.4483H22.3448C22.6881 25.4483 22.9655 25.1708 22.9655 24.8276C22.9655 24.4843 22.6881 24.2069 22.3448 24.2069H2.40766C5.23055 21.9699 11.5945 16.8946 14.8643 14.0257L15.7463 14.8047C16.3682 15.3596 17.1844 15.637 18.0012 15.637C18.8162 15.637 19.6312 15.3602 20.2512 14.8072L34.7586 1.99738V19.2414C34.7586 19.5846 35.0361 19.8621 35.3793 19.8621C35.7226 19.8621 36 19.5846 36 19.2414V0.62069C36 0.615724 35.9975 0.611379 35.9969 0.606414ZM1.24138 23.5471V1.99738L13.9264 13.1983C10.4779 16.2106 3.77752 21.5404 1.24138 23.5471ZM19.427 13.8786C18.6406 14.5812 17.3594 14.5812 16.5706 13.8761L15.3422 12.7918C15.3391 12.7874 15.3379 12.7825 15.3348 12.7788C15.3211 12.7632 15.3019 12.757 15.287 12.7428L2.26179 1.24138H33.7388L19.427 13.8786Z" fill="url(#paint1_linear_1335_3010)"/>
<defs>
<linearGradient id="paint0_linear_1335_3010" x1="34.9157" y1="18.8773" x2="25.4301" y2="28.4366" gradientUnits="userSpaceOnUse">
<stop stop-color="#5390E3"/>
<stop offset="1" stop-color="#1357B3"/>
</linearGradient>
<linearGradient id="paint1_linear_1335_3010" x1="33.4286" y1="2.31348" x2="13.3843" y2="30.8886" gradientUnits="userSpaceOnUse">
<stop stop-color="#5390E3"/>
<stop offset="1" stop-color="#1357B3"/>
</linearGradient>
</defs>
</svg>
