<svg width="39" height="39" viewBox="0 0 39 39" fill="none" xmlns="http://www.w3.org/2000/svg">
<path d="M32.6277 7.9279e-05C32.3821 -0.00368542 32.1539 0.126869 32.0326 0.34065L30.9501 2.18724C30.6261 2.08236 30.2811 2.02522 29.9233 2.02522C28.0748 2.02522 26.562 3.53809 26.562 5.38656C26.562 6.35314 26.9762 7.2275 27.6352 7.84222L23.2696 15.2889C22.6402 14.9756 21.9321 14.7984 21.1837 14.7984C18.8451 14.7984 16.8952 16.5215 16.5371 18.7621L11.7679 18.0089C11.6883 16.2297 10.2084 14.7983 8.41047 14.7983C6.56201 14.7983 5.04913 16.3112 5.04913 18.1596C5.04913 18.9851 5.35152 19.743 5.85007 20.3299L0.486855 27.1561C0.252906 27.4445 0.297007 27.8679 0.58541 28.1018C0.873813 28.3358 1.29721 28.2917 1.53116 28.0033C1.53559 27.9979 1.5399 27.9924 1.5442 27.9867L6.90607 21.1624C7.35945 21.3914 7.87051 21.5211 8.41047 21.5211C9.84523 21.5211 11.0774 20.6094 11.5572 19.3371L16.5194 20.1204C16.8231 22.4221 18.8013 24.2102 21.1834 24.2102C23.7745 24.2102 25.8893 22.0954 25.8893 19.5043C25.8893 18.1446 25.3063 16.9166 24.3783 16.0561L28.7803 8.54662C29.1374 8.67677 29.5222 8.74803 29.9229 8.74803C31.7714 8.74803 33.2842 7.23516 33.2842 5.38669C33.2842 4.37641 32.8315 3.46723 32.1199 2.84969L33.1925 1.02045C33.3848 0.702868 33.2833 0.289423 32.9656 0.0971547C32.8635 0.0353061 32.747 0.00182718 32.6277 7.9279e-05ZM29.9233 3.36975C30.2421 3.36975 30.5413 3.44411 30.808 3.57332C30.8666 3.61984 30.9325 3.65641 31.0031 3.68128C31.5674 4.03705 31.9401 4.66387 31.9401 5.38669C31.9401 6.50844 31.0451 7.40349 29.9233 7.40349C29.5775 7.40349 29.2535 7.31798 28.9703 7.16739C28.9094 7.11213 28.8389 7.06857 28.7623 7.03872C28.2437 6.67543 27.9065 6.07429 27.9065 5.38669C27.9065 4.26481 28.8016 3.36975 29.9233 3.36975ZM29.9233 3.70589C28.9991 3.70589 28.2426 4.46232 28.2426 5.38656C28.24 5.57224 28.3884 5.72484 28.5741 5.7274C28.7598 5.73009 28.9124 5.58165 28.9149 5.39597C28.9149 5.39274 28.9149 5.38965 28.9149 5.38642C28.9149 4.82548 29.3624 4.37802 29.9233 4.37802C30.109 4.38071 30.2616 4.23227 30.2642 4.04659C30.2667 3.86091 30.1184 3.70831 29.9327 3.70575C29.9298 3.70589 29.9265 3.70589 29.9233 3.70589ZM28.0229 15.031C27.6517 15.0399 27.3579 15.348 27.3668 15.7192C27.3711 15.9006 27.4486 16.0725 27.5815 16.196C30.1702 18.6671 30.8813 22.5126 29.3479 25.7461C27.8144 28.9795 24.3871 30.8621 20.8355 30.4214C17.284 29.9808 14.4203 27.3177 13.7235 23.8075C13.6574 23.4422 13.3074 23.1996 12.9421 23.2658C12.5768 23.3319 12.3342 23.6819 12.4004 24.0472C12.4017 24.0545 12.4032 24.0618 12.4047 24.069C13.2133 28.143 16.5479 31.2443 20.6697 31.7557C22.7996 32.0199 24.8939 31.5609 26.667 30.5391L33.9002 38.7715C34.1454 39.0504 34.5702 39.0777 34.849 38.8326C34.8598 38.823 34.8703 38.8132 34.8805 38.8031L38.4661 35.2178C38.7285 34.9552 38.7284 34.5295 38.4658 34.2669C38.4586 34.2598 38.4513 34.2527 38.4438 34.2458L30.3069 26.8194C30.3961 26.6566 30.4824 26.4916 30.5626 26.3223C32.3424 22.5695 31.5139 18.0913 28.5095 15.2233C28.3801 15.096 28.2045 15.0266 28.0229 15.031ZM8.41074 16.1428C9.53262 16.1428 10.4275 17.0379 10.4275 18.1596C10.4275 19.2814 9.53249 20.1764 8.41074 20.1764C7.98251 20.1764 7.58789 20.0451 7.26291 19.8214C7.26264 19.8212 7.26264 19.821 7.26237 19.8208C7.20886 19.7602 7.14473 19.7098 7.07333 19.672C6.65639 19.3037 6.39394 18.7655 6.39394 18.1596C6.39394 17.0379 7.289 16.1428 8.41074 16.1428ZM21.1838 16.1428C21.8603 16.1428 22.4879 16.3408 23.0136 16.6809C23.0757 16.7469 23.1506 16.7998 23.2337 16.8361C24.0322 17.4492 24.5452 18.4135 24.5452 19.5042C24.5452 21.3685 23.0482 22.8655 21.1838 22.8655C19.3684 22.8655 17.9021 21.446 17.8261 19.6502C17.8384 19.5752 17.838 19.4985 17.8245 19.4235C17.8673 17.597 19.3465 16.1428 21.1838 16.1428ZM8.41074 16.479C7.48651 16.479 6.73007 17.2354 6.73007 18.1596C6.72738 18.3453 6.87582 18.4979 7.0615 18.5005C7.24718 18.503 7.39979 18.3547 7.40234 18.1691C7.40234 18.1658 7.40234 18.1627 7.40234 18.1595C7.40234 17.5986 7.8498 17.1511 8.41074 17.1511C8.59642 17.1538 8.74903 17.0054 8.75158 16.8197C8.75427 16.634 8.60583 16.4814 8.42015 16.4788C8.4172 16.479 8.41397 16.479 8.41074 16.479ZM21.1838 17.1512C19.8884 17.1512 18.8309 18.2087 18.8309 19.5042C18.8282 19.6899 18.9766 19.8425 19.1623 19.845C19.348 19.8477 19.5006 19.6993 19.5032 19.5136C19.5032 19.5104 19.5032 19.5073 19.5032 19.504C19.5032 18.5719 20.2517 17.8234 21.1838 17.8234C21.3695 17.8261 21.5221 17.6776 21.5247 17.4919C21.5274 17.3063 21.3789 17.1537 21.1932 17.1511C21.1903 17.1512 21.1871 17.1512 21.1838 17.1512ZM28.6088 21.8524C28.4233 21.8554 28.2753 22.0078 28.2779 22.1933C28.2779 25.7438 25.4066 28.615 21.8561 28.615C21.6704 28.6123 21.5178 28.7608 21.5153 28.9464C21.5126 29.1321 21.661 29.2847 21.8467 29.2873C21.8499 29.2873 21.853 29.2873 21.8562 29.2873C25.77 29.2873 28.9503 26.1072 28.9503 22.1933C28.9528 22.0076 28.8045 21.855 28.6188 21.8524C28.6155 21.8524 28.6121 21.8524 28.6088 21.8524ZM29.5706 27.9676L35.4538 33.3369L32.9551 35.6589L27.7913 29.7821C28.4559 29.2627 29.0562 28.655 29.5706 27.9676ZM35.9519 33.7918L37.0179 34.7644L34.4371 37.3452L33.3992 36.1641L35.9519 33.7918Z" fill="url(#paint0_linear_1511_3009)"/>
<defs>
<linearGradient id="paint0_linear_1511_3009" x1="35.9253" y1="3.54545" x2="3.25706" y2="35.8982" gradientUnits="userSpaceOnUse">
<stop stop-color="#5390E3"/>
<stop offset="1" stop-color="#1357B3"/>
</linearGradient>
</defs>
</svg>
