<svg width="59" height="59" viewBox="0 0 59 59" fill="none" xmlns="http://www.w3.org/2000/svg">
<path d="M14.75 16.5938C11.7004 16.5938 9.21875 14.1121 9.21875 11.0625C9.21875 8.01294 11.7004 5.53125 14.75 5.53125C17.7996 5.53125 20.2812 8.01294 20.2812 11.0625C20.2812 14.1121 17.7996 16.5938 14.75 16.5938ZM14.75 7.375C12.7163 7.375 11.0625 9.02884 11.0625 11.0625C11.0625 13.0962 12.7163 14.75 14.75 14.75C16.7837 14.75 18.4375 13.0962 18.4375 11.0625C18.4375 9.02884 16.7837 7.375 14.75 7.375Z" fill="url(#paint0_linear_1518_3016)"/>
<path d="M10.1406 57.1562C9.63175 57.1562 9.21875 56.7432 9.21875 56.2344V47.0156C9.21875 46.5068 9.63175 46.0938 10.1406 46.0938C10.6495 46.0938 11.0625 46.5068 11.0625 47.0156V56.2344C11.0625 56.7432 10.6495 57.1562 10.1406 57.1562Z" fill="url(#paint1_linear_1518_3016)"/>
<path d="M6.45312 38.7188C5.94425 38.7188 5.53125 38.3057 5.53125 37.7969V24.8906C5.53125 21.9074 7.94841 18.4375 11.0625 18.4375H19.3594C19.8682 18.4375 20.2812 18.8505 20.2812 19.3594C20.2812 19.8682 19.8682 20.2812 19.3594 20.2812H11.0625C9.07678 20.2812 7.375 22.8164 7.375 24.8906V37.7969C7.375 38.3057 6.962 38.7188 6.45312 38.7188Z" fill="url(#paint2_linear_1518_3016)"/>
<path d="M9.21875 44.25H3.6875C2.67159 44.25 1.84375 43.424 1.84375 42.4062V38.7188C1.84375 37.701 2.67159 36.875 3.6875 36.875H9.21875C10.2347 36.875 11.0625 37.701 11.0625 38.7188V42.4062C11.0625 43.424 10.2347 44.25 9.21875 44.25ZM9.21875 42.4062V43.3281V42.4062ZM3.6875 38.7188V42.4062H9.21691L9.21875 38.7188H3.6875Z" fill="url(#paint3_linear_1518_3016)"/>
<path d="M47.9375 16.5938C44.8879 16.5938 42.4062 14.1121 42.4062 11.0625C42.4062 8.01294 44.8879 5.53125 47.9375 5.53125C50.9871 5.53125 53.4688 8.01294 53.4688 11.0625C53.4688 14.1121 50.9871 16.5938 47.9375 16.5938ZM47.9375 7.375C45.9038 7.375 44.25 9.02884 44.25 11.0625C44.25 13.0962 45.9038 14.75 47.9375 14.75C49.9712 14.75 51.625 13.0962 51.625 11.0625C51.625 9.02884 49.9712 7.375 47.9375 7.375Z" fill="url(#paint4_linear_1518_3016)"/>
<path d="M54.3906 57.1562C53.8818 57.1562 53.4688 56.7432 53.4688 56.2344V37.7969C53.4688 37.288 53.8818 36.875 54.3906 36.875C54.8995 36.875 55.3125 36.4602 55.3125 35.9531V24.8906C55.3125 22.8164 53.6107 20.2812 51.625 20.2812H43.3281C42.8193 20.2812 42.4062 19.8682 42.4062 19.3594C42.4062 18.8505 42.8193 18.4375 43.3281 18.4375H51.625C54.7391 18.4375 57.1562 21.9074 57.1562 24.8906V35.9531C57.1562 37.1553 56.3856 38.1804 55.3125 38.5602V56.2344C55.3125 56.7432 54.8995 57.1562 54.3906 57.1562Z" fill="url(#paint5_linear_1518_3016)"/>
<path d="M44.25 44.25H41.4844C40.9755 44.25 40.5625 43.837 40.5625 43.3281C40.5625 42.8193 40.9755 42.4062 41.4844 42.4062H44.25V38.7188H41.4844C40.9755 38.7188 40.5625 38.3057 40.5625 37.7969C40.5625 37.288 40.9755 36.875 41.4844 36.875H44.25C45.2659 36.875 46.0938 37.701 46.0938 38.7188V42.4062C46.0938 43.424 45.2659 44.25 44.25 44.25Z" fill="url(#paint6_linear_1518_3016)"/>
<path d="M31.3438 12.9062C28.2942 12.9062 25.8125 10.4246 25.8125 7.375C25.8125 4.32544 28.2942 1.84375 31.3438 1.84375C34.3933 1.84375 36.875 4.32544 36.875 7.375C36.875 10.4246 34.3933 12.9062 31.3438 12.9062ZM31.3438 3.6875C29.3101 3.6875 27.6562 5.34134 27.6562 7.375C27.6562 9.40866 29.3101 11.0625 31.3438 11.0625C33.3774 11.0625 35.0312 9.40866 35.0312 7.375C35.0312 5.34134 33.3774 3.6875 31.3438 3.6875Z" fill="url(#paint7_linear_1518_3016)"/>
<path d="M48.8594 57.1562C48.3505 57.1562 47.9375 56.7432 47.9375 56.2344V43.3281C47.9375 42.8193 48.3505 42.4062 48.8594 42.4062C49.3682 42.4062 49.7812 42.8193 49.7812 43.3281V56.2344C49.7812 56.7432 49.3682 57.1562 48.8594 57.1562Z" fill="url(#paint8_linear_1518_3016)"/>
<path d="M15.6719 57.1562C15.163 57.1562 14.75 56.7432 14.75 56.2344V43.3281C14.75 42.8193 15.163 42.4062 15.6719 42.4062C16.1807 42.4062 16.5938 42.8193 16.5938 43.3281V56.2344C16.5938 56.7432 16.1807 57.1562 15.6719 57.1562Z" fill="url(#paint9_linear_1518_3016)"/>
<path d="M26.7344 57.1562C26.2255 57.1562 25.8125 56.7432 25.8125 56.2344V45.1719C25.8125 44.663 26.2255 44.25 26.7344 44.25C27.2432 44.25 27.6562 44.663 27.6562 45.1719V56.2344C27.6562 56.7432 27.2432 57.1562 26.7344 57.1562Z" fill="url(#paint10_linear_1518_3016)"/>
<path d="M37.7969 57.1562C37.288 57.1562 36.875 56.7432 36.875 56.2344V35.9531C36.875 35.4443 37.288 35.0312 37.7969 35.0312C38.3057 35.0312 38.7187 34.6164 38.7187 34.1094V21.2031C38.7187 19.1289 37.017 16.5938 35.0312 16.5938H27.6562C25.6705 16.5938 23.8526 19.1492 23.7586 21.2418L23.0469 35.9974C23.0229 36.5044 22.5564 36.9156 22.0826 36.8732C21.5737 36.8492 21.181 36.4177 21.205 35.9089L21.9185 21.1552C22.0531 18.1333 24.5385 14.75 27.6562 14.75H35.0312C38.1453 14.75 40.5625 18.2199 40.5625 21.2031V34.1094C40.5625 35.3115 39.7918 36.3366 38.7187 36.7164V56.2344C38.7187 56.7432 38.3057 57.1562 37.7969 57.1562Z" fill="url(#paint11_linear_1518_3016)"/>
<path d="M32.2656 57.1562C31.7568 57.1562 31.3438 56.7432 31.3438 56.2344V39.6406C31.3438 39.1318 31.7568 38.7188 32.2656 38.7188C32.7745 38.7188 33.1875 39.1318 33.1875 39.6406V56.2344C33.1875 56.7432 32.7745 57.1562 32.2656 57.1562Z" fill="url(#paint12_linear_1518_3016)"/>
<path d="M25.8125 42.4062H20.2812C19.2653 42.4062 18.4375 41.5802 18.4375 40.5625V36.875C18.4375 35.8573 19.2653 35.0312 20.2812 35.0312H25.8125C26.8284 35.0312 27.6562 35.8573 27.6562 36.875V40.5625C27.6562 41.5802 26.8284 42.4062 25.8125 42.4062ZM25.8125 40.5625V41.4844V40.5625ZM20.2812 36.875V40.5625H25.8107L25.8125 36.875H20.2812Z" fill="url(#paint13_linear_1518_3016)"/>
<defs>
<linearGradient id="paint0_linear_1518_3016" x1="19.4911" y1="6.53693" x2="10.2244" y2="15.8754" gradientUnits="userSpaceOnUse">
<stop stop-color="#5390E3"/>
<stop offset="1" stop-color="#1357B3"/>
</linearGradient>
<linearGradient id="paint1_linear_1518_3016" x1="10.9308" y1="47.0994" x2="7.90329" y2="47.6079" gradientUnits="userSpaceOnUse">
<stop stop-color="#5390E3"/>
<stop offset="1" stop-color="#1357B3"/>
</linearGradient>
<linearGradient id="paint2_linear_1518_3016" x1="19.2277" y1="20.2813" x2="3.02678" y2="32.1551" gradientUnits="userSpaceOnUse">
<stop stop-color="#5390E3"/>
<stop offset="1" stop-color="#1357B3"/>
</linearGradient>
<linearGradient id="paint3_linear_1518_3016" x1="10.404" y1="37.5455" x2="4.38713" y2="45.1249" gradientUnits="userSpaceOnUse">
<stop stop-color="#5390E3"/>
<stop offset="1" stop-color="#1357B3"/>
</linearGradient>
<linearGradient id="paint4_linear_1518_3016" x1="52.6786" y1="6.53693" x2="43.4119" y2="15.8754" gradientUnits="userSpaceOnUse">
<stop stop-color="#5390E3"/>
<stop offset="1" stop-color="#1357B3"/>
</linearGradient>
<linearGradient id="paint5_linear_1518_3016" x1="56.1027" y1="21.9574" x2="34.3982" y2="30.2898" gradientUnits="userSpaceOnUse">
<stop stop-color="#5390E3"/>
<stop offset="1" stop-color="#1357B3"/>
</linearGradient>
<linearGradient id="paint6_linear_1518_3016" x1="45.6987" y1="37.5455" x2="39.7552" y2="42.0376" gradientUnits="userSpaceOnUse">
<stop stop-color="#5390E3"/>
<stop offset="1" stop-color="#1357B3"/>
</linearGradient>
<linearGradient id="paint7_linear_1518_3016" x1="36.0848" y1="2.84943" x2="26.8182" y2="12.1879" gradientUnits="userSpaceOnUse">
<stop stop-color="#5390E3"/>
<stop offset="1" stop-color="#1357B3"/>
</linearGradient>
<linearGradient id="paint8_linear_1518_3016" x1="49.6496" y1="43.7472" x2="46.5853" y2="44.1332" gradientUnits="userSpaceOnUse">
<stop stop-color="#5390E3"/>
<stop offset="1" stop-color="#1357B3"/>
</linearGradient>
<linearGradient id="paint9_linear_1518_3016" x1="16.4621" y1="43.7472" x2="13.3978" y2="44.1332" gradientUnits="userSpaceOnUse">
<stop stop-color="#5390E3"/>
<stop offset="1" stop-color="#1357B3"/>
</linearGradient>
<linearGradient id="paint10_linear_1518_3016" x1="27.5246" y1="45.4233" x2="24.4748" y2="45.8623" gradientUnits="userSpaceOnUse">
<stop stop-color="#5390E3"/>
<stop offset="1" stop-color="#1357B3"/>
</linearGradient>
<linearGradient id="paint11_linear_1518_3016" x1="39.1797" y1="18.6051" x2="12.2045" y2="31.0149" gradientUnits="userSpaceOnUse">
<stop stop-color="#5390E3"/>
<stop offset="1" stop-color="#1357B3"/>
</linearGradient>
<linearGradient id="paint12_linear_1518_3016" x1="33.0558" y1="40.3949" x2="29.9742" y2="40.7054" gradientUnits="userSpaceOnUse">
<stop stop-color="#5390E3"/>
<stop offset="1" stop-color="#1357B3"/>
</linearGradient>
<linearGradient id="paint13_linear_1518_3016" x1="26.9978" y1="35.7017" x2="20.9809" y2="43.2811" gradientUnits="userSpaceOnUse">
<stop stop-color="#5390E3"/>
<stop offset="1" stop-color="#1357B3"/>
</linearGradient>
</defs>
</svg>
