<svg width="33" height="32" viewBox="0 0 33 32" fill="none" xmlns="http://www.w3.org/2000/svg">
<g clip-path="url(#clip0_1219_3334)">
<path d="M31.2462 5.51733H1.45305C0.843984 5.51733 0.349609 6.01115 0.349609 6.62077V25.3794C0.349609 25.9885 0.843984 26.4828 1.45305 26.4828H5.86686L6.9703 20.9656H25.7289L26.8324 26.4828H31.2462C31.8553 26.4828 32.3496 25.9885 32.3496 25.3794V6.62077C32.3496 6.01115 31.8552 5.51733 31.2462 5.51733Z" fill="url(#paint0_linear_1219_3334)"/>
<path d="M0.349609 18.7588V25.3795C0.349609 25.9886 0.843984 26.4829 1.45305 26.4829H5.86686L6.9703 20.9657H25.7289L26.8324 26.4829H31.2462C31.8553 26.4829 32.3496 25.9885 32.3496 25.3795V18.7588H0.349609Z" fill="#434C6D"/>
<path d="M24.6258 13.7932H8.07406C6.85531 13.7932 5.86719 12.8051 5.86719 11.5863V5.51733H26.8327V11.5863C26.8327 12.805 25.8446 13.7932 24.6258 13.7932Z" fill="#434C6D"/>
<path d="M27.2631 32.0001H5.43693C5.08881 32.0001 4.82731 31.6817 4.89568 31.3402L6.97075 20.9656H25.7294L27.8044 31.3402C27.8723 31.6817 27.6113 32.0001 27.2631 32.0001Z" fill="#EDEBDA"/>
<path d="M25.1766 5.51725H7.52148V0.55175C7.52148 0.247187 7.76867 0 8.07323 0H24.625C24.9295 0 25.1767 0.247187 25.1767 0.55175V5.51725H25.1766Z" fill="#EDEBDA"/>
<path d="M20.7641 24.2759H11.9365C11.6314 24.2759 11.3848 24.0292 11.3848 23.7241C11.3848 23.419 11.6314 23.1724 11.9365 23.1724H20.7641C21.0692 23.1724 21.3158 23.419 21.3158 23.7241C21.3158 24.0292 21.0692 24.2759 20.7641 24.2759Z" fill="#CEC9AE"/>
<path d="M22.4181 27.0344H10.2803C9.97514 27.0344 9.72852 26.7878 9.72852 26.4827C9.72852 26.1775 9.97514 25.9309 10.2803 25.9309H22.4182C22.7233 25.9309 22.97 26.1775 22.97 26.4827C22.9699 26.7878 22.7233 27.0344 22.4181 27.0344Z" fill="#CEC9AE"/>
<path d="M24.0742 29.7932H8.62597C8.32084 29.7932 8.07422 29.5466 8.07422 29.2414C8.07422 28.9363 8.32084 28.6897 8.62597 28.6897H24.0742C24.3793 28.6897 24.626 28.9363 24.626 29.2414C24.626 29.5466 24.3793 29.7932 24.0742 29.7932Z" fill="#CEC9AE"/>
<path d="M18.0039 11.5862H24.6246V8.27588H18.0039V11.5862Z" fill="url(#paint1_linear_1219_3334)"/>
</g>
<defs>
<linearGradient id="paint0_linear_1219_3334" x1="30.0639" y1="7.42329" x2="14.0125" y2="32.1128" gradientUnits="userSpaceOnUse">
<stop stop-color="#5390E3"/>
<stop offset="1" stop-color="#1357B3"/>
</linearGradient>
<linearGradient id="paint1_linear_1219_3334" x1="23.466" y1="8.52415" x2="22.2277" y2="12.0463" gradientUnits="userSpaceOnUse">
<stop stop-color="#66DA6E"/>
<stop offset="1" stop-color="#00A300"/>
</linearGradient>
<clipPath id="clip0_1219_3334">
<rect width="32" height="32" fill="white" transform="translate(0.349609)"/>
</clipPath>
</defs>
</svg>
