<svg width="33" height="32" viewBox="0 0 33 32" fill="none" xmlns="http://www.w3.org/2000/svg">
<path d="M3.84961 12.675C4.11482 12.675 4.36918 12.5696 4.55671 12.3821C4.74425 12.1946 4.84961 11.9402 4.84961 11.675V4.5H12.0246C12.2898 4.5 12.5442 4.39465 12.7317 4.20711C12.9193 4.01957 13.0246 3.76522 13.0246 3.5C13.0246 3.23478 12.9193 2.98043 12.7317 2.7929C12.5442 2.60536 12.2898 2.5 12.0246 2.5H3.84961C3.58439 2.5 3.33004 2.60536 3.1425 2.7929C2.95496 2.98043 2.84961 3.23478 2.84961 3.5V11.675C2.84961 11.9402 2.95496 12.1946 3.1425 12.3821C3.33004 12.5696 3.58439 12.675 3.84961 12.675Z" fill="url(#paint0_linear_1219_3287)"/>
<path d="M12.0246 27.5H4.84961V20.325C4.84961 20.0598 4.74425 19.8054 4.55671 19.6179C4.36918 19.4303 4.11482 19.325 3.84961 19.325C3.58439 19.325 3.33004 19.4303 3.1425 19.6179C2.95496 19.8054 2.84961 20.0598 2.84961 20.325V28.5C2.84961 28.7652 2.95496 29.0195 3.1425 29.2071C3.33004 29.3946 3.58439 29.5 3.84961 29.5H12.0246C12.2898 29.5 12.5442 29.3946 12.7317 29.2071C12.9193 29.0195 13.0246 28.7652 13.0246 28.5C13.0246 28.2348 12.9193 27.9804 12.7317 27.7929C12.5442 27.6053 12.2898 27.5 12.0246 27.5Z" fill="url(#paint1_linear_1219_3287)"/>
<path d="M20.6738 4.5H27.8488V11.675C27.8488 11.9402 27.9542 12.1946 28.1417 12.3821C28.3293 12.5696 28.5836 12.675 28.8488 12.675C29.1141 12.675 29.3684 12.5696 29.5559 12.3821C29.7435 12.1946 29.8488 11.9402 29.8488 11.675V3.5C29.8488 3.23478 29.7435 2.98043 29.5559 2.7929C29.3684 2.60536 29.1141 2.5 28.8488 2.5H20.6738C20.4086 2.5 20.1543 2.60536 19.9667 2.7929C19.7792 2.98043 19.6738 3.23478 19.6738 3.5C19.6738 3.76522 19.7792 4.01957 19.9667 4.20711C20.1543 4.39465 20.4086 4.5 20.6738 4.5Z" fill="url(#paint2_linear_1219_3287)"/>
<path d="M27.8488 20.325V27.5H20.6738C20.4086 27.5 20.1543 27.6053 19.9667 27.7929C19.7792 27.9804 19.6738 28.2348 19.6738 28.5C19.6738 28.7652 19.7792 29.0195 19.9667 29.2071C20.1543 29.3946 20.4086 29.5 20.6738 29.5H28.8488C29.1141 29.5 29.3684 29.3946 29.5559 29.2071C29.7435 29.0195 29.8488 28.7652 29.8488 28.5V20.325C29.8488 20.0598 29.7435 19.8054 29.5559 19.6179C29.3684 19.4303 29.1141 19.325 28.8488 19.325C28.5836 19.325 28.3293 19.4303 28.1417 19.6179C27.9542 19.8054 27.8488 20.0598 27.8488 20.325Z" fill="url(#paint3_linear_1219_3287)"/>
<path d="M30.3496 15H2.34961C2.08439 15 1.83004 15.1054 1.6425 15.2929C1.45496 15.4805 1.34961 15.7348 1.34961 16C1.34961 16.2652 1.45496 16.5195 1.6425 16.7071C1.83004 16.8946 2.08439 17 2.34961 17H30.3496C30.6148 17 30.8692 16.8946 31.0567 16.7071C31.2443 16.5195 31.3496 16.2652 31.3496 16C31.3496 15.7348 31.2443 15.4805 31.0567 15.2929C30.8692 15.1054 30.6148 15 30.3496 15Z" fill="url(#paint4_linear_1219_3287)"/>
<rect x="0.849609" y="0.5" width="31" height="31" stroke="url(#paint5_linear_1219_3287)"/>
<defs>
<linearGradient id="paint0_linear_1219_3287" x1="12.2978" y1="3.425" x2="3.77461" y2="12.0143" gradientUnits="userSpaceOnUse">
<stop stop-color="#5390E3"/>
<stop offset="1" stop-color="#1357B3"/>
</linearGradient>
<linearGradient id="paint1_linear_1219_3287" x1="12.2978" y1="20.25" x2="3.77461" y2="28.8392" gradientUnits="userSpaceOnUse">
<stop stop-color="#5390E3"/>
<stop offset="1" stop-color="#1357B3"/>
</linearGradient>
<linearGradient id="paint2_linear_1219_3287" x1="29.122" y1="3.425" x2="20.5988" y2="12.0143" gradientUnits="userSpaceOnUse">
<stop stop-color="#5390E3"/>
<stop offset="1" stop-color="#1357B3"/>
</linearGradient>
<linearGradient id="paint3_linear_1219_3287" x1="29.122" y1="20.25" x2="20.5988" y2="28.8392" gradientUnits="userSpaceOnUse">
<stop stop-color="#5390E3"/>
<stop offset="1" stop-color="#1357B3"/>
</linearGradient>
<linearGradient id="paint4_linear_1219_3287" x1="29.2068" y1="15.1818" x2="28.9861" y2="18.518" gradientUnits="userSpaceOnUse">
<stop stop-color="#5390E3"/>
<stop offset="1" stop-color="#1357B3"/>
</linearGradient>
<linearGradient id="paint5_linear_1219_3287" x1="30.0639" y1="2.90909" x2="3.2587" y2="29.9221" gradientUnits="userSpaceOnUse">
<stop stop-color="#5390E3"/>
<stop offset="1" stop-color="#1357B3"/>
</linearGradient>
</defs>
</svg>
