<svg width="36" height="36" viewBox="0 0 36 36" fill="none" xmlns="http://www.w3.org/2000/svg">
<path d="M21.8257 14.94H23.1533C23.2847 14.934 23.416 14.9542 23.5394 14.9995C23.663 15.0448 23.7762 15.1142 23.8726 15.2038C23.9689 15.2933 24.0465 15.4012 24.1007 15.5211C24.1549 15.6409 24.1847 15.7704 24.1883 15.9019C24.1884 16.0284 24.1625 16.1537 24.1122 16.2698C24.0619 16.3859 23.9882 16.4904 23.8957 16.5769C23.6993 16.7615 23.4397 16.8641 23.1701 16.8637H20.6333C20.4468 16.8637 20.2679 16.9378 20.1361 17.0697C20.0042 17.2015 19.9302 17.3804 19.9302 17.5669C19.9302 17.7533 20.0042 17.9322 20.1361 18.0641C20.2679 18.1959 20.4468 18.27 20.6333 18.27H21.7583V19.4737C21.7583 19.6602 21.8323 19.8391 21.9642 19.9709C22.0961 20.1028 22.2749 20.1769 22.4614 20.1769C22.6479 20.1769 22.8267 20.1028 22.9585 19.9709C23.0904 19.8391 23.1645 19.6602 23.1645 19.4737V18.27C23.7947 18.2687 24.3998 18.0227 24.852 17.5838C25.079 17.3651 25.2597 17.103 25.3834 16.8131C25.5071 16.5232 25.5712 16.2114 25.572 15.8963C25.5631 15.2612 25.303 14.6555 24.8487 14.2117C24.3944 13.7679 23.7827 13.5221 23.1477 13.5281H21.8257C21.5651 13.5342 21.3125 13.4372 21.1229 13.2581C20.9334 13.0791 20.8221 12.8325 20.8133 12.5719C20.8131 12.4458 20.8383 12.3211 20.8876 12.205C20.9369 12.089 21.0092 11.9842 21.1001 11.8969C21.2968 11.7084 21.5589 11.6035 21.8314 11.6044H24.3514C24.5379 11.6044 24.7167 11.5303 24.8485 11.3984C24.9804 11.2666 25.0545 11.0877 25.0545 10.9012C25.0545 10.7148 24.9804 10.5359 24.8485 10.4041C24.7167 10.2722 24.5379 10.1981 24.3514 10.1981H23.1926V9C23.1926 8.81353 23.1186 8.63466 22.9867 8.50281C22.8548 8.37096 22.676 8.29688 22.4895 8.29688C22.303 8.29688 22.1242 8.37096 21.9923 8.50281C21.8604 8.63466 21.7863 8.81353 21.7863 9V10.2037C21.1569 10.2029 20.5517 10.447 20.0988 10.8844C19.8719 11.103 19.6912 11.3651 19.5675 11.655C19.4438 11.9449 19.3796 12.2567 19.3789 12.5719C19.3825 12.8885 19.4489 13.2013 19.5741 13.4921C19.6994 13.7829 19.881 14.046 20.1085 14.2662C20.336 14.4864 20.6049 14.6593 20.8997 14.775C21.1944 14.8906 21.5092 14.9467 21.8257 14.94Z" fill="url(#paint0_linear_1231_3016)"/>
<path d="M26.4375 21.375H18.5625C18.376 21.375 18.1972 21.4491 18.0653 21.5809C17.9335 21.7128 17.8594 21.8917 17.8594 22.0781C17.8594 22.2646 17.9335 22.4435 18.0653 22.5753C18.1972 22.7072 18.376 22.7812 18.5625 22.7812H26.4375C26.624 22.7812 26.8028 22.7072 26.9347 22.5753C27.0665 22.4435 27.1406 22.2646 27.1406 22.0781C27.1406 21.8917 27.0665 21.7128 26.9347 21.5809C26.8028 21.4491 26.624 21.375 26.4375 21.375Z" fill="url(#paint1_linear_1231_3016)"/>
<path d="M26.4375 24.0469H18.5625C18.376 24.0469 18.1972 24.121 18.0653 24.2528C17.9335 24.3847 17.8594 24.5635 17.8594 24.75C17.8594 24.9365 17.9335 25.1153 18.0653 25.2472C18.1972 25.379 18.376 25.4531 18.5625 25.4531H26.4375C26.624 25.4531 26.8028 25.379 26.9347 25.2472C27.0665 25.1153 27.1406 24.9365 27.1406 24.75C27.1406 24.5635 27.0665 24.3847 26.9347 24.2528C26.8028 24.121 26.624 24.0469 26.4375 24.0469Z" fill="url(#paint2_linear_1231_3016)"/>
<path d="M28.5581 2.93612H8.12812C8.09443 2.93308 8.06057 2.93308 8.02688 2.93612C6.72368 3.03798 5.50666 3.62717 4.61846 4.58626C3.73025 5.54536 3.23606 6.80394 3.23438 8.11113V23.6361C3.23587 24.7038 3.66067 25.7274 4.41565 26.4823C5.17062 27.2373 6.19419 27.6621 7.26187 27.6636H12.2119V32.3436C12.2119 32.4742 12.2482 32.6022 12.3169 32.7133C12.3855 32.8243 12.4838 32.9141 12.6006 32.9725C12.7173 33.0309 12.8481 33.0556 12.9782 33.0439C13.1082 33.0322 13.2324 32.9845 13.3369 32.9061L17.7019 29.6324L22.0669 32.9061C22.1878 32.9992 22.3361 33.0496 22.4887 33.0496C22.6414 33.0496 22.7897 32.9992 22.9106 32.9061L27.2756 29.6324L31.6406 32.9061C31.7616 32.9989 31.9101 33.0484 32.0625 33.0468C32.155 33.0475 32.2468 33.0298 32.3324 32.9947C32.4181 32.9597 32.4959 32.9079 32.5614 32.8425C32.6268 32.777 32.6786 32.6992 32.7137 32.6136C32.7487 32.5279 32.7664 32.4362 32.7656 32.3436V7.13801C32.7642 6.02308 32.3202 4.95432 31.5313 4.16648C30.7424 3.37863 29.6731 2.93612 28.5581 2.93612ZM4.64062 23.653V8.12801C4.64062 7.124 5.03947 6.16111 5.74942 5.45115C6.45936 4.74121 7.42224 4.34237 8.42625 4.34237C9.43026 4.34237 10.3931 4.74121 11.1031 5.45115C11.813 6.16111 12.2119 7.124 12.2119 8.12801V26.2743H7.26187C6.56668 26.2743 5.89995 25.9981 5.40837 25.5065C4.91679 25.0149 4.64062 24.3482 4.64062 23.653ZM31.3594 30.9655L27.6975 28.2205C27.5758 28.1292 27.4278 28.0799 27.2756 28.0799C27.1235 28.0799 26.9755 28.1292 26.8538 28.2205L22.5 31.4999L18.135 28.2261C18.0129 28.1357 17.8651 28.0869 17.7131 28.0869C17.5612 28.0869 17.4133 28.1357 17.2912 28.2261L13.6181 30.9374V8.12801C13.6176 7.41718 13.4704 6.71416 13.1858 6.06279C12.9013 5.41145 12.4855 4.82577 11.9644 4.34237H28.5581C29.3041 4.34237 30.0194 4.63868 30.5468 5.16613C31.0743 5.69356 31.3706 6.40895 31.3706 7.15488L31.3594 30.9655Z" fill="url(#paint3_linear_1231_3016)"/>
<defs>
<linearGradient id="paint0_linear_1231_3016" x1="25.1296" y1="9.37688" x2="16.9351" y2="13.6818" gradientUnits="userSpaceOnUse">
<stop stop-color="#5390E3"/>
<stop offset="1" stop-color="#1357B3"/>
</linearGradient>
<linearGradient id="paint1_linear_1231_3016" x1="26.4777" y1="21.5028" x2="26.1313" y2="23.8068" gradientUnits="userSpaceOnUse">
<stop stop-color="#5390E3"/>
<stop offset="1" stop-color="#1357B3"/>
</linearGradient>
<linearGradient id="paint2_linear_1231_3016" x1="26.4777" y1="24.1747" x2="26.1313" y2="26.4786" gradientUnits="userSpaceOnUse">
<stop stop-color="#5390E3"/>
<stop offset="1" stop-color="#1357B3"/>
</linearGradient>
<linearGradient id="paint3_linear_1231_3016" x1="30.6563" y1="5.67164" x2="5.43044" y2="30.5996" gradientUnits="userSpaceOnUse">
<stop stop-color="#5390E3"/>
<stop offset="1" stop-color="#1357B3"/>
</linearGradient>
</defs>
</svg>
