<svg width="36" height="30" viewBox="0 0 36 30" fill="none" xmlns="http://www.w3.org/2000/svg">
<path d="M22.5129 8.54447C20.0246 7.1089 16.005 7.1089 13.5314 8.54447C11.0578 9.98004 11.0725 12.3138 13.5608 13.7493C16.0492 15.1849 20.0688 15.1849 22.5424 13.7493C25.016 12.3064 25.0013 9.98004 22.5129 8.54447ZM21.3718 10.8046C21.1583 10.8708 20.9448 10.9445 20.7313 11.0107C20.5988 11.0475 20.5178 11.0549 20.4589 11.0254C20.4295 11.0034 20.4001 10.9739 20.3706 10.9297C20.2307 10.7015 20.0172 10.5027 19.7301 10.3408C19.6933 10.3187 19.6491 10.2966 19.605 10.2745C19.5093 10.223 19.4209 10.1862 19.3031 10.1567C18.8909 10.061 18.5228 10.2156 18.5743 10.4733C18.5964 10.6058 18.67 10.7236 18.7583 10.8488C18.9056 11.0549 19.0675 11.261 19.1706 11.4819C19.5166 12.1739 18.7657 12.8586 17.5584 12.9248C17.124 12.9469 16.7117 12.8954 16.3289 12.7702C16.1596 12.7187 16.0344 12.7187 15.9093 12.807C15.7841 12.888 15.6443 12.9616 15.5117 13.0352C15.3939 13.1015 15.2688 13.1089 15.151 13.0426C15.0627 12.9984 14.9817 12.9469 14.8933 12.9027C14.8344 12.8659 14.7755 12.8365 14.7167 12.7997C14.5915 12.726 14.6062 12.6524 14.724 12.5788C14.8197 12.5199 14.9154 12.4684 15.0038 12.4095C15.2173 12.2843 15.2173 12.277 15.0406 12.1371C14.8197 11.9604 14.6209 11.7764 14.4958 11.5702C14.4001 11.4083 14.4222 11.3714 14.6798 11.2831C14.8713 11.2242 15.0553 11.158 15.2467 11.0991C15.3866 11.0549 15.4676 11.0475 15.5265 11.077C15.5633 11.0991 15.5854 11.1285 15.6148 11.18C15.74 11.4156 15.9535 11.6218 16.2111 11.8205C16.2553 11.8573 16.3068 11.8868 16.351 11.9162C16.4909 11.9972 16.6528 12.0561 16.8369 12.1003C17.3154 12.2107 17.7424 12.0193 17.6982 11.7175C17.6835 11.6144 17.632 11.526 17.5657 11.4303C17.4038 11.1874 17.1903 10.9592 17.0798 10.7015C16.9031 10.2892 16.9841 9.91379 17.551 9.61931C18.1988 9.28802 18.9203 9.26594 19.6859 9.47207C20.0025 9.56042 19.9951 9.56042 20.2381 9.42054C20.3191 9.36901 20.4001 9.32483 20.481 9.28066C20.6651 9.17759 20.7313 9.17759 20.9154 9.28066C20.9743 9.31011 21.0258 9.34692 21.0847 9.37637C21.4749 9.59722 21.4749 9.59722 21.0921 9.82544C20.8197 9.98004 20.8197 9.98004 21.0479 10.1641C21.2246 10.304 21.3645 10.4512 21.4675 10.6132C21.5485 10.6942 21.5191 10.7604 21.3718 10.8046ZM25.8331 15.6487C25.1485 16.0463 24.0368 16.0463 23.3448 15.6487C22.6602 15.2512 22.6528 14.6033 23.3375 14.2058C24.0221 13.8082 25.1338 13.8082 25.8258 14.2058C26.5178 14.6033 26.5252 15.2512 25.8331 15.6487ZM12.7289 8.08067C12.0443 8.47821 10.9326 8.47821 10.2406 8.08067C9.54859 7.68313 9.54859 7.03528 10.2332 6.63773C10.9179 6.24019 12.0296 6.24019 12.7216 6.63773C13.4062 7.03528 13.4136 7.68313 12.7289 8.08067ZM35.146 12.5641L15.5265 1.23408C14.3927 0.578873 12.5522 0.578873 11.4259 1.23408L0.905694 7.34448C-0.22068 7.99969 -0.213318 9.06717 0.920417 9.72238L20.5399 21.0524C21.6737 21.7076 23.5141 21.7076 24.6405 21.0524L35.1533 14.942C36.2871 14.2868 36.2797 13.2193 35.146 12.5641ZM24.854 18.8953C24.7289 18.7775 24.5816 18.6671 24.4049 18.564C23.2565 17.9015 21.3939 17.9015 20.2528 18.564C20.1645 18.6156 20.0909 18.6671 20.0099 18.726L4.77806 9.92851C4.9253 9.86962 5.06518 9.80336 5.19769 9.72974C6.33879 9.06717 6.33143 7.99233 5.18297 7.32975C5.05782 7.25613 4.9253 7.18988 4.78542 7.13834L11.0651 3.48683C11.1608 3.56781 11.2713 3.64143 11.3964 3.71505C12.5449 4.37762 14.4075 4.37762 15.5485 3.71505C15.6811 3.64143 15.7915 3.56045 15.8946 3.47211L31.1779 12.2917C30.9718 12.3653 30.7877 12.4463 30.611 12.5494C29.4699 13.2119 29.4699 14.2941 30.6258 14.9567C30.8024 15.0598 31.0012 15.1407 31.2074 15.2144L24.854 18.8953ZM0.405083 11.9898C0.905694 11.7322 1.6787 11.769 2.15722 12.0487L22.6675 23.8867L33.7546 17.4377C34.2331 17.1579 35.0208 17.1579 35.5067 17.4377C35.9926 17.7174 35.9926 18.1739 35.5141 18.4536L23.7276 25.3002C23.1534 25.6388 22.2111 25.6388 21.6295 25.3002L21.2172 25.0646L20.9301 24.8953L0.368273 13.0279C-0.132337 12.7408 -0.124975 12.2622 0.405083 11.9898ZM35.5288 22.1567L23.7424 29.0032C23.1681 29.3419 22.2258 29.3419 21.6442 29.0032L21.2393 28.7677L20.9448 28.5983L0.382997 16.7309C-0.117613 16.4438 -0.102889 15.9653 0.427169 15.6929C0.920417 15.4352 1.70078 15.472 2.17931 15.7518L22.6822 27.5898L33.7693 21.1481C34.2552 20.8683 35.0355 20.8683 35.5214 21.1481C36.0073 21.4205 36.0147 21.8769 35.5288 22.1567Z" fill="url(#paint0_linear_1319_3012)"/>
<defs>
<linearGradient id="paint0_linear_1319_3012" x1="33.4285" y1="3.33491" x2="10.2186" y2="32.8649" gradientUnits="userSpaceOnUse">
<stop stop-color="#5390E3"/>
<stop offset="1" stop-color="#1357B3"/>
</linearGradient>
</defs>
</svg>
