<svg width="30" height="30" viewBox="0 0 30 30" fill="none" xmlns="http://www.w3.org/2000/svg">
<path d="M25.515 19.7445V8.9955C25.5075 6.5865 23.8995 3 19.5 3V0L13.5 4.5L19.5 9V6C22.2435 6 22.5015 8.3085 22.515 9V19.7445C20.355 20.3955 18.765 22.38 18.765 24.75C18.765 27.645 21.12 30 24.015 30C26.91 30 29.265 27.645 29.265 24.75C29.265 22.38 27.675 20.3955 25.515 19.7445V19.7445ZM24.015 27C22.7745 27 21.765 25.9905 21.765 24.75C21.765 23.5095 22.7745 22.5 24.015 22.5C25.2555 22.5 26.265 23.5095 26.265 24.75C26.265 25.9905 25.2555 27 24.015 27ZM11.25 5.25C11.25 2.355 8.895 0 6 0C3.105 0 0.75 2.355 0.75 5.25C0.75 7.62 2.34 9.6045 4.5 10.2555V19.7445C2.34 20.3955 0.75 22.38 0.75 24.75C0.75 27.645 3.105 30 6 30C8.895 30 11.25 27.645 11.25 24.75C11.25 22.38 9.66 20.3955 7.5 19.7445V10.2555C9.66 9.6045 11.25 7.62 11.25 5.25ZM3.75 5.25C3.75 4.0095 4.7595 3 6 3C7.2405 3 8.25 4.0095 8.25 5.25C8.25 6.4905 7.2405 7.5 6 7.5C4.7595 7.5 3.75 6.4905 3.75 5.25ZM8.25 24.75C8.25 25.9905 7.2405 27 6 27C4.7595 27 3.75 25.9905 3.75 24.75C3.75 23.5095 4.7595 22.5 6 22.5C7.2405 22.5 8.25 23.5095 8.25 24.75Z" fill="url(#paint0_linear_1303_3010)"/>
<defs>
<linearGradient id="paint0_linear_1303_3010" x1="27.2282" y1="2.72727" x2="2.12086" y2="26.7768" gradientUnits="userSpaceOnUse">
<stop stop-color="#5390E3"/>
<stop offset="1" stop-color="#1357B3"/>
</linearGradient>
</defs>
</svg>
