<svg width="40" height="27" viewBox="0 0 40 27" fill="none" xmlns="http://www.w3.org/2000/svg">
<path d="M39.7233 13.1094C36.3362 5.14584 28.5555 0 19.9014 0C11.2473 0 3.46673 5.14568 0.0795279 13.1094C-0.0265093 13.3586 -0.0265093 13.6401 0.0795279 13.8893C3.4665 21.8538 11.2472 27 19.9014 27C28.5559 27 36.3365 21.8538 39.7233 13.8893C39.8293 13.6401 39.8293 13.3586 39.7233 13.1094ZM19.9014 25.0072C12.1901 25.0072 5.24301 20.5044 2.08413 13.4995C5.24309 6.49524 12.1903 1.99286 19.9014 1.99286C27.6127 1.99286 34.5598 6.49525 37.7187 13.4993C34.5598 20.5042 27.6127 25.0072 19.9014 25.0072Z" fill="url(#paint0_linear_1411_3082)"/>
<path d="M19.9014 5.86792C15.6931 5.86792 12.2694 9.29166 12.2694 13.5C12.2694 17.7082 15.6932 21.132 19.9014 21.132C24.1097 21.132 27.5335 17.7083 27.5335 13.5C27.5335 9.29158 24.1097 5.86792 19.9014 5.86792ZM19.9014 19.1394C16.792 19.1394 14.2622 16.6096 14.2622 13.5001C14.2622 10.3907 16.792 7.86086 19.9014 7.86086C23.0109 7.86086 25.5407 10.3907 25.5407 13.5001C25.5407 16.6096 23.0109 19.1394 19.9014 19.1394Z" fill="url(#paint1_linear_1411_3082)"/>
<path d="M19.9014 9.448C17.6672 9.448 15.8494 11.2657 15.8494 13.5C15.8494 14.0503 16.2954 14.4964 16.8458 14.4964C17.3962 14.4964 17.8422 14.0503 17.8422 13.5C17.8422 12.3646 18.7659 11.4408 19.9014 11.4408C20.4518 11.4408 20.8978 10.9946 20.8978 10.4444C20.8978 9.89399 20.4516 9.448 19.9014 9.448Z" fill="url(#paint2_linear_1411_3082)"/>
<defs>
<linearGradient id="paint0_linear_1411_3082" x1="36.9598" y1="2.45455" x2="16.0053" y2="33.5847" gradientUnits="userSpaceOnUse">
<stop stop-color="#5390E3"/>
<stop offset="1" stop-color="#1357B3"/>
</linearGradient>
<linearGradient id="paint1_linear_1411_3082" x1="26.4432" y1="7.25556" x2="13.6571" y2="20.1408" gradientUnits="userSpaceOnUse">
<stop stop-color="#5390E3"/>
<stop offset="1" stop-color="#1357B3"/>
</linearGradient>
<linearGradient id="paint2_linear_1411_3082" x1="20.5372" y1="9.90695" x2="16.3083" y2="14.1686" gradientUnits="userSpaceOnUse">
<stop stop-color="#5390E3"/>
<stop offset="1" stop-color="#1357B3"/>
</linearGradient>
</defs>
</svg>
