<svg width="40" height="31" viewBox="0 0 40 31" fill="none" xmlns="http://www.w3.org/2000/svg">
<path d="M39.7233 15.1094C36.3362 7.14584 28.5555 2 19.9014 2C11.2473 2 3.46673 7.14568 0.0795279 15.1094C-0.0265093 15.3586 -0.0265093 15.6401 0.0795279 15.8893C3.4665 23.8538 11.2472 29 19.9014 29C28.5559 29 36.3365 23.8538 39.7233 15.8893C39.8293 15.6401 39.8293 15.3586 39.7233 15.1094ZM19.9014 27.0072C12.1901 27.0072 5.24301 22.5044 2.08413 15.4995C5.24309 8.49524 12.1903 3.99286 19.9014 3.99286C27.6127 3.99286 34.5598 8.49525 37.7187 15.4993C34.5598 22.5042 27.6127 27.0072 19.9014 27.0072Z" fill="url(#paint0_linear_1411_3101)"/>
<path d="M19.9014 7.86792C15.693 7.86792 12.2693 11.2917 12.2693 15.5C12.2693 19.7082 15.6931 23.132 19.9014 23.132C24.1097 23.132 27.5334 19.7083 27.5334 15.5C27.5334 11.2916 24.1097 7.86792 19.9014 7.86792ZM19.9014 21.1394C16.7919 21.1394 14.2621 18.6096 14.2621 15.5001C14.2621 12.3907 16.7919 9.86086 19.9014 9.86086C23.0108 9.86086 25.5406 12.3907 25.5406 15.5001C25.5406 18.6096 23.0108 21.1394 19.9014 21.1394Z" fill="url(#paint1_linear_1411_3101)"/>
<path d="M19.9014 11.448C17.6672 11.448 15.8494 13.2657 15.8494 15.5C15.8494 16.0503 16.2954 16.4964 16.8458 16.4964C17.3962 16.4964 17.8422 16.0503 17.8422 15.5C17.8422 14.3646 18.7659 13.4408 19.9014 13.4408C20.4518 13.4408 20.8978 12.9946 20.8978 12.4444C20.8978 11.894 20.4516 11.448 19.9014 11.448Z" fill="url(#paint2_linear_1411_3101)"/>
<line x1="7.1042" y1="28.8812" x2="36.8812" y2="1.8958" stroke="url(#paint3_linear_1411_3101)" stroke-width="3" stroke-linecap="round"/>
<defs>
<linearGradient id="paint0_linear_1411_3101" x1="36.9598" y1="4.45455" x2="16.0053" y2="35.5847" gradientUnits="userSpaceOnUse">
<stop stop-color="#5390E3"/>
<stop offset="1" stop-color="#1357B3"/>
</linearGradient>
<linearGradient id="paint1_linear_1411_3101" x1="26.4431" y1="9.25556" x2="13.657" y2="22.1408" gradientUnits="userSpaceOnUse">
<stop stop-color="#5390E3"/>
<stop offset="1" stop-color="#1357B3"/>
</linearGradient>
<linearGradient id="paint2_linear_1411_3101" x1="20.5372" y1="11.9069" x2="16.3083" y2="16.1686" gradientUnits="userSpaceOnUse">
<stop stop-color="#5390E3"/>
<stop offset="1" stop-color="#1357B3"/>
</linearGradient>
<linearGradient id="paint3_linear_1411_3101" x1="36.7753" y1="4.13879" x2="37.8713" y2="5.4054" gradientUnits="userSpaceOnUse">
<stop stop-color="#5390E3"/>
<stop offset="1" stop-color="#1357B3"/>
</linearGradient>
</defs>
</svg>
